<?xml version="1.0" encoding="UTF-8"?>
<svg id="Layer_1" data-name="Layer 1" xmlns="http://www.w3.org/2000/svg" viewBox="0 0 1142.7 1275.59">
  <defs>
    <style>
      .cls-1 {
        fill: #e5ded2;
      }
    </style>
  </defs>
  <path class="cls-1" d="M871.44,1218.57c41.92-40.39,75.75-267.53,25.72-292.67l-69.12.15c42.87-48.57,74.69-102.39,132.74-135.66,130.82-74.98,195.38-3.62,179.58,133.49-17.09,148.31-202.69,355.65-362.14,343.19-83.63-6.53-202.71-79.35-230.44-161.64l203.49-635.5c-19.56-3.47-13.83,3-18.78,15.29-93.35,231.83-144.13,497.4-307.86,696.95C262.73,1379.53-10.54,1238.76.31,996.2c10-223.37,291.35-424.9,452.48-552.48,63.17-50.01,180.44-116.51,225.97-180.47,36.98-51.95,49.01-140,72.63-199.64l29.62,20.12,20.06,64.13c42.86-48.14,77.06-159.06-28.24-120.2-91.75,33.86-273.49,257.54-363.09,334.69-76.55,65.91-210.76,171.75-302.74,72.98-78.81-84.63-50.88-226.06-19.32-325.84,8.44-26.68,27.86-97.17,57.57-88.12-52.52,66.49-11.7,176.62,72.56,188.23C471.57,244.56,693.81-76.99,916.39,17.43c125.69,53.32,98.87,184.87,76.63,291.56-45.96,220.38-138.45,445.32-193.51,665.21-15.29,61.06-46.76,169.25-24.97,227.58,17.89,47.89,62.66,49.79,96.91,16.8ZM804.96,193.96c-13.71-2.89-18.56,7.36-27.01,15.09-36.92,33.78-73.19,77.09-110.92,111.46-156.04,142.13-405.85,320.32-421.85,551.94-10.23,148.13,88.79,208.16,207.03,114.97,68.95-54.34,140.71-206.37,168.98-291.09,30.32-90.87,46.26-216.18,80.08-303.28,9.85-25.38,40.29-43.84,52.13-63.26,8.81-14.45,56.62-130.62,51.56-135.83Z"/>
</svg>