<?xml version="1.0" encoding="UTF-8"?>
<svg id="Layer_1" data-name="Layer 1" xmlns="http://www.w3.org/2000/svg" viewBox="0 0 1026.8 1275.59">
  <defs>
    <style>
      .cls-1 {
        fill: #e5ded2;
      }
    </style>
  </defs>
  <path class="cls-1" d="M240.83,448.44l48.73-188.09C380.57,35.51,698.19-87.3,900.48,72.59c204.83,161.89,41.71,415.24-141.69,509.18l-160.56,83.98c102.6-5.09,206.83,10.69,294.54,66.7,185.68,118.58,170.21,324.59,4.33,453.36-71.47,55.48-189.84,80.24-279.16,85.91-202.53,12.86-415.44-10.71-617.94-8.09V33.08l11.65-11.65h209.75c2.57,0,11.79,10.28,19.42,7.76v419.24ZM704.27,109.54c-51.79-46.44-133.29-26.28-186.37,6.34-51.78,31.83-162.37,163.7-193.12,218.48-54.46,97.05-79.38,229.28-83.87,339.22,156.72-81.18,493.44-246.41,505.03-446.69,2.25-38.96-12.4-91.12-41.66-117.36ZM240.83,1224.82c207.3-12.95,547.38-94.74,528.59-361.36-8.5-120.65-124.31-192.75-236.24-150.04-128.4,49-292.34,259.32-292.34,398.82v112.57Z"/>
</svg>