<?xml version="1.0" encoding="UTF-8"?>
<svg id="Layer_1" data-name="Layer 1" xmlns="http://www.w3.org/2000/svg" xmlns:xlink="http://www.w3.org/1999/xlink" viewBox="0 0 851.79 288.71">
  <defs>
    <style>
      .cls-1 {
        clip-path: url(#clippath-6);
      }

      .cls-2 {
        clip-path: url(#clippath-7);
      }

      .cls-3 {
        clip-path: url(#clippath-4);
      }

      .cls-4 {
        clip-path: url(#clippath-9);
      }

      .cls-5 {
        clip-path: url(#clippath-10);
      }

      .cls-6 {
        clip-path: url(#clippath-11);
      }

      .cls-7 {
        fill: none;
      }

      .cls-8 {
        clip-path: url(#clippath-1);
      }

      .cls-9 {
        clip-path: url(#clippath-5);
      }

      .cls-10 {
        clip-path: url(#clippath-8);
      }

      .cls-11 {
        clip-path: url(#clippath-3);
      }

      .cls-12 {
        clip-path: url(#clippath-2);
      }

      .cls-13 {
        clip-path: url(#clippath);
      }

      .cls-14 {
        fill: #e5ddd2;
      }
    </style>
    <clipPath id="clippath">
      <rect class="cls-7" x="447.38" y="105.01" width="63.7" height="77.03"/>
    </clipPath>
    <clipPath id="clippath-1">
      <rect class="cls-7" x="725.88" y="105.01" width="54.81" height="79.99"/>
    </clipPath>
    <clipPath id="clippath-2">
      <rect class="cls-7" x="791.06" y="105.01" width="60.74" height="79.99"/>
    </clipPath>
    <clipPath id="clippath-3">
      <rect class="cls-7" x="161.47" y="106.5" width="48.89" height="78.51"/>
    </clipPath>
    <clipPath id="clippath-4">
      <rect class="cls-7" x="281.46" y="106.5" width="57.77" height="78.51"/>
    </clipPath>
    <clipPath id="clippath-5">
      <rect class="cls-7" x="645.88" y="105.01" width="51.85" height="79.99"/>
    </clipPath>
    <clipPath id="clippath-6">
      <rect class="cls-7" x="157.03" y="208.71" width="63.7" height="79.99"/>
    </clipPath>
    <clipPath id="clippath-7">
      <rect class="cls-7" x="220.73" y="208.71" width="77.03" height="79.99"/>
    </clipPath>
    <clipPath id="clippath-8">
      <rect class="cls-7" x="303.68" y="208.71" width="59.26" height="79.99"/>
    </clipPath>
    <clipPath id="clippath-9">
      <rect class="cls-7" x="371.83" y="208.71" width="60.74" height="79.99"/>
    </clipPath>
    <clipPath id="clippath-10">
      <rect class="cls-7" x="459.23" y="208.71" width="63.7" height="79.99"/>
    </clipPath>
    <clipPath id="clippath-11">
      <rect class="cls-7" x="536.26" y="208.71" width="47.4" height="79.99"/>
    </clipPath>
  </defs>
  <g>
    <path class="cls-14" d="M140.5,181.5c2.55-2.49,4.62-16.47,1.57-18.01h-4.21c2.61-2.98,4.55-6.29,8.09-8.34,7.97-4.62,11.9-.22,10.94,8.22-1.04,9.13-12.35,21.89-22.07,21.12-5.1-.4-12.35-4.88-14.04-9.95l12.4-39.12c-1.19-.21-.84.18-1.14.94-5.69,14.27-8.78,30.62-18.76,42.9-9.86,12.15-26.51,3.48-25.85-11.45.61-13.75,17.75-26.15,27.57-34.01,3.85-3.08,10.99-7.17,13.77-11.11,2.25-3.2,2.99-8.62,4.43-12.29l1.8,1.24,1.22,3.95c2.61-2.96,4.7-9.79-1.72-7.4-5.59,2.08-16.66,15.85-22.12,20.6-4.66,4.06-12.84,10.57-18.45,4.49-4.8-5.21-3.1-13.91-1.18-20.06.51-1.64,1.7-5.98,3.51-5.42-3.2,4.09-.71,10.87,4.42,11.59,15.46,2.15,29-17.64,42.56-11.83,7.66,3.28,6.02,11.38,4.67,17.95-2.8,13.56-8.44,27.41-11.79,40.94-.93,3.76-2.85,10.42-1.52,14.01,1.09,2.95,3.82,3.06,5.9,1.03h0ZM136.45,118.43c-.84-.18-1.13.45-1.65.93-2.25,2.08-4.46,4.74-6.76,6.86-9.51,8.75-24.73,19.72-25.7,33.97-.62,9.12,5.41,12.81,12.61,7.08,4.2-3.34,8.57-12.7,10.3-17.92,1.85-5.59,2.82-13.31,4.88-18.67.6-1.56,2.45-2.7,3.18-3.89.54-.89,3.45-8.04,3.14-8.36Z"/>
    <path class="cls-14" d="M424.92,180.02c2.55-2.49,4.61-16.47,1.57-18.01h-4.21c2.61-2.98,4.55-6.29,8.09-8.34,7.97-4.62,11.9-.22,10.94,8.22-1.04,9.13-12.35,21.89-22.07,21.12-5.1-.4-12.35-4.88-14.04-9.95l12.4-39.12c-1.19-.21-.84.18-1.14.94-5.69,14.27-8.78,30.62-18.76,42.9-9.86,12.15-26.51,3.48-25.85-11.45.61-13.75,17.75-26.15,27.57-34.01,3.85-3.08,10.99-7.17,13.77-11.11,2.25-3.2,2.99-8.62,4.42-12.29l1.8,1.24,1.22,3.95c2.61-2.96,4.7-9.79-1.72-7.4-5.59,2.08-16.66,15.85-22.12,20.6-4.66,4.06-12.84,10.57-18.45,4.49-4.8-5.21-3.1-13.91-1.18-20.06.52-1.64,1.7-5.98,3.51-5.42-3.2,4.09-.71,10.87,4.42,11.59,15.46,2.15,29-17.64,42.56-11.83,7.66,3.28,6.02,11.38,4.67,17.95-2.8,13.56-8.43,27.41-11.79,40.94-.93,3.76-2.85,10.42-1.52,14.01,1.09,2.95,3.82,3.06,5.9,1.03h0ZM420.87,116.95c-.83-.18-1.13.45-1.64.93-2.25,2.08-4.46,4.74-6.76,6.86-9.51,8.75-24.73,19.72-25.7,33.97-.62,9.12,5.41,12.81,12.62,7.08,4.2-3.34,8.57-12.7,10.3-17.92,1.85-5.59,2.82-13.31,4.88-18.67.6-1.56,2.45-2.7,3.18-3.89.54-.89,3.45-8.04,3.14-8.36Z"/>
    <g class="cls-13">
      <path class="cls-14" d="M447.38,182.05l.07-76.78,24.64.02,23.97,65.66v-65.66l14.56-.27.39.58.07,76.45h-25.67l-23.25-66.62v66.62h-14.77Z"/>
    </g>
    <g class="cls-8">
      <path class="cls-14" d="M725.88,185.01l.06-79.74,21.2.02,20.63,68.19v-68.18l12.53-.28.33.6.06,79.39h-22.09l-20.01-69.18v69.18h-12.71Z"/>
    </g>
    <g class="cls-12">
      <g>
        <path class="cls-14" d="M841.83,168.85c-1.5,1.99-2.04,4.6-3.51,6.88-8.44,13.06-25.33,11.12-35.22,1.66-26.91-25.73-4.97-88.25,28.95-68.63,2.65,1.53,7.09,6.13,9.11,6.95,5.55,2.24,9.57-3.91,7.3-10.09,1.05-1.36,2.42,4.7,2.53,5.22,1.01,4.76,1.57,14.64-1.5,18.39-4.78,5.82-10.7-9.65-13.12-12.9-6.49-8.7-20.21-4.28-26.06,3.8-15.19,20.96-2.8,61.66,21.61,50.63,2.35-1.06,8.06-6.37,7.62-9.69-.06-.42-1.02-.48-1.39-1.26-.42-.89-.42-2.5-.91-3.65-.57-1.36-2.04-2.82-2.61-4.42h-18.49c-.04-.68,0-1.35.09-2.02.17-1.18,1.55-6.49,1.95-7.6.2-.55.49-.95.87-1.31h31.93l.58.71v41.6c-3.23.47-6.53.89-9.73,0v-14.26h0ZM841.05,154.11v-2.37h-.38v2.37h.38Z"/>
        <path class="cls-14" d="M767.07,35.15l-4.61,1.28c-23.27,9.84-20.8,59.97,3.36,65.9,14.73,3.61,24.56-11.18,21.21-28.19-1.54-.88-7.35-2.25-8.26-.48-1.31,2.53,1.07,6.45-1.53,10.9-2.39,4.09-11.72,10.34-15.82,10.28-4.18-.06-10.37-4.83-11.16-10.04,1.33-.14,2.33,1.16,3.53,1.66,1.13.47,2.52.48,3.48,1,1.76.95,2.76,3.49,5.01,3.91,1.06.2,2.36.23,3.42.11,3.68-.42,11.86-6.43,12.31-11.26.19-1.97-1.36-8.22.4-9.53.56-.42,7.04.64,8.21,1.22-1.89-17.36-16.39-30.46-30.49-24.11,4.77-8.22,14.75-13.08,22.67-9.55,26.19,11.67,25.9,64.86-1.56,74.96-27.74,10.2-49.98-22.77-39.5-54.92,4.49-13.8,17.08-23.92,29.33-23.14h0Z"/>
      </g>
    </g>
    <g class="cls-11">
      <path class="cls-14" d="M176.14,144.32l15.51-30.75c1.89-1.07,3.05-6.18,4.78-6.51,1.92-.36,5.19.09,7.36.02,1.41-.04,4.97-1.28,5.87-.04l.13,1.14-20.45,36.62h21.02l-17.45,39.08c-.12.45-1.06,1.12-1.37,1.12h-12.47l14.67-31.37h-17.6v30.64l-.73.74h-13.2l-.73-.74v-77.21h14.67v37.26h0Z"/>
    </g>
    <g class="cls-3">
      <path class="cls-14" d="M335.33,108.37c.84-.85,2.09,2.29,2.24,2.68,1.89,4.78,3.71,20.85-4.34,20.27-5.13-.37-6.55-10.36-9.39-12.66-.57-.46-3.73-.86-4.7-.93-4.96-.38-11.82-.85-16.45.91-9.46,3.58-5.91,13.96,1.41,17.82,2.21,1.17,12.4,4.79,14.57,4.69,2.45-.11,5.24-2.9,7.26-3.57.7-.23,1.17-.42,1.68.26.83,2.58-2.97,4-1.91,6.09.37.73,4.9,3.19,6.1,4.22,10.83,9.33,9.73,25.06-2.6,32.46-12.27,7.36-37.65,5.88-45.68-7.25-6.21-10.16,2.78-17.14,12.98-15.74,1.74.24,8.42,2.95,9.52,4.08.31.33.51.89-.08.93-7.62,3.99-4.96,12.8,1.56,16.78,14.4,8.79,28.24-6.17,15.19-18.88-10.17-9.91-39.52-17.97-40.86-33.19-1.58-18,17.64-24.28,32.26-19.05,6.07,2.17,10.8,10.4,16.75,9.89,4.61-.4,6.71-6.03,4.52-9.8h0Z"/>
    </g>
    <path class="cls-14" d="M270.63,106.5v10.82l-.7.75h-40.18v22.64h39.95v11.07h-39.25l-.7.75v21.89l41.34.5v11.57h-54.58l-.23-79.99h54.35Z"/>
    <path class="cls-14" d="M643.94,208.71v10.82l-.7.75h-40.18v22.64h39.95v11.07h-39.25l-.7.75v21.89l41.34.5v11.57h-54.58l-.23-79.99h54.35Z"/>
    <path class="cls-14" d="M27.82,106.5l12.91,72.56,12.92-72.56h27.82v78.48h-15.4v-60.71l-11.48,60.66-27.54.09-12.15-62.22v61.45l-.75.74H0v-78.48h27.82Z"/>
    <g class="cls-9">
      <g>
        <path class="cls-14" d="M697.73,105.35v79.66h-12.44v-33.57h-26.13v33.57h-13.27v-79.66h13.27v34.07l25.1.02c.35.06,1.03-.52,1.03-.77v-33.32c4.2-.08,8.25-.71,12.44,0Z"/>
        <path class="cls-14" d="M607.53,58.18l12.43,64.54c3.88-1.29,4.31-.9,5.49-5.61,3.52-14,5.25-29.18,8.51-43.31-1.62-4.97,0-7.76,1.61-12.01.97-2.58-.3-3.99,3.04-3.38,3.91.71,8.42,3.78,12.37,4.83l-17,74.93-24.34.02-15.72-73.7,13.61-6.29Z"/>
      </g>
    </g>
    <path class="cls-14" d="M716.99,105.23v79.77h-11.85v-79.77c4.01,0,7.84-.5,11.85,0Z"/>
    <path class="cls-14" d="M450.34,208.93v79.77h-11.85v-79.77c4.01,0,7.84-.5,11.85,0Z"/>
    <path class="cls-14" d="M641.44,105.01v11.41l-17.31.5v65.72l-.56.74h-11.85c-.13,0,.02,2.33-2.01,1.41-.7-.32-1.52-2.62-1.4-3.63.19-1.56,3.76-3.46,4.16-5.47v-58.78l-18.44,5.46v-17.36h47.4Z"/>
    <path class="cls-14" d="M537.91,113.03c1.21,1.91,7.41,13.98,8.13,14.42,1.28.79,4.25-.27,5.53-1.05,8.61-5.21,7.13-21.77,18.25-21.38,5.71.2,12.35,2.69,18.29,2.47l-15.32,46.12c-2.51,3.28-3.23,8.59-4.84,12.61-4.04,10.07-13.25,22.57-25.09,17.71-4.44-1.82-12.74-13.7-17.23-7.6-1.56,2.11-.67,3.75-.76,6.05-2.83-4.86-4.01-16.6.21-20.82,4.43-4.44,7.52,1.25,9.99,4.67h.67c.15-1.9,2.09-1.94,3.31-.78,1.98,3.63-1.71,8.39,1.83,10.79,4.45,3.03,9.43-3.92,11.34-7.56,2.88-5.5,4.62-12.17,7.17-17.88-2.77.18-4.65,2.13-7.64,2.24-1.71.06-4.96-.54-6.29-1.71l-24.01-39.12c.12-.65,9.81-7.03,10.45-7.1,1.13-.12,4.03,5.67,4.86,6.97.31.48.98.68,1.15.95h0ZM573.26,107.02c-12.83-4.69-12.69,12.12-15.03,21.03-1.06,4.01-4.41,10.08-2.97,13.9.36.96,3.76,6.64,4.35,6.65,5.08-11.75,7.96-24.44,12.21-36.51.25-.71.85-.69,1.07-1.35.38-1.17.47-2.49.37-3.72h0Z"/>
    <g class="cls-1">
      <path class="cls-14" d="M212.94,208.71c.69.14,4.43,2.55,5.04,3.18,3.55,3.67,3.56,10.87.59,14.98-8.57,10.9-18.66,20.76-27.24,31.6-.5.63-2.88,3.71-2.92,4.07-.11.83,2.1,2.12-.08,3.44l-15.4-2.78v12.25c2.12,1.11,6,1.82,5.97,5.03-.02,1.95-5.14,1.44-6.4,2.29l-.07,5.93h-15.41v-79.24l.75-.75h55.17ZM201.01,220.71h-28.08v41c8.27-8.15,14.59-18.08,21.87-27.11.57-.7,1.57-1.04,2.25-1.88,1.44-1.77,5.76-7.22,5.74-9.27,0-.88-1.07-2.54-1.78-2.74h0Z"/>
    </g>
    <g class="cls-2">
      <g>
        <path class="cls-14" d="M351.14,342.45c-1.83,1.99-2.49,4.6-4.29,6.88-10.3,13.06-30.94,11.12-43.03,1.66-32.89-25.73-6.07-88.25,35.38-68.63,3.24,1.53,8.66,6.13,11.13,6.95,6.78,2.24,11.69-3.92,8.91-10.09,1.28-1.36,2.96,4.7,3.1,5.22,1.24,4.76,1.92,14.64-1.84,18.39-5.84,5.82-13.07-9.65-16.03-12.9-7.93-8.7-24.69-4.28-31.85,3.8-18.56,20.96-3.42,61.66,26.4,50.63,2.87-1.06,9.85-6.37,9.31-9.7-.07-.42-1.25-.48-1.69-1.26-.51-.89-.51-2.5-1.11-3.66-.7-1.36-2.49-2.82-3.19-4.42h-22.6c-.05-.68,0-1.35.12-2.02.2-1.18,1.9-6.49,2.39-7.6.24-.55.59-.95,1.07-1.31h39.01l.71.71v41.6c-3.94.47-7.98.89-11.89,0v-14.26h0ZM350.19,327.71v-2.37h-.47v2.37h.47Z"/>
        <path class="cls-14" d="M259.79,208.75l-5.64,1.28c-28.43,9.84-25.41,59.97,4.11,65.9,18,3.61,30.01-11.18,25.92-28.19-1.88-.88-8.98-2.25-10.09-.48-1.6,2.53,1.31,6.45-1.88,10.9-2.92,4.09-14.32,10.34-19.33,10.28-5.1-.06-12.68-4.83-13.64-10.04,1.63-.14,2.85,1.16,4.31,1.66,1.38.47,3.08.48,4.25,1,2.15.95,3.37,3.49,6.12,3.91,1.29.2,2.88.23,4.18.11,4.49-.42,14.49-6.43,15.05-11.26.23-1.97-1.67-8.22.49-9.53.69-.42,8.61.64,10.03,1.22-2.31-17.36-20.03-30.46-37.26-24.11,5.83-8.22,18.02-13.08,27.7-9.55,31.99,11.67,31.65,64.86-1.9,74.96-33.89,10.2-61.07-22.77-48.27-54.92,5.49-13.8,20.87-23.92,35.84-23.14Z"/>
      </g>
    </g>
    <g class="cls-10">
      <path class="cls-14" d="M358.93,210.62c.86-.86,2.14,2.33,2.3,2.73,1.94,4.87,3.8,21.25-4.46,20.65-5.26-.38-6.72-10.55-9.64-12.89-.59-.47-3.83-.87-4.82-.95-5.08-.39-12.12-.86-16.87.92-9.7,3.65-6.06,14.23,1.45,18.16,2.27,1.19,12.72,4.88,14.94,4.77,2.51-.12,5.38-2.96,7.44-3.64.71-.24,1.19-.43,1.72.27.85,2.63-3.04,4.07-1.96,6.2.38.75,5.03,3.25,6.26,4.3,11.11,9.5,9.98,25.54-2.67,33.07-12.58,7.5-38.62,5.99-46.86-7.39-6.37-10.35,2.85-17.46,13.31-16.04,1.79.24,8.63,3,9.76,4.16.32.33.52.91-.08.95-7.82,4.07-5.09,13.04,1.6,17.09,14.77,8.96,28.96-6.28,15.58-19.24-10.43-10.1-40.54-18.31-41.91-33.81-1.63-18.34,18.1-24.73,33.08-19.41,6.23,2.21,11.08,10.6,17.18,10.08,4.72-.41,6.88-6.15,4.63-9.98h0Z"/>
    </g>
    <g class="cls-4">
      <path class="cls-14" d="M428.14,209.81c.98-.99,2.78,3.86,2.95,4.37,1.39,4.22,3.08,18.65-1.65,20.9-6.02,2.85-10.64-8.09-13.53-11.74-5.17-6.55-16.03-11.57-23.5-5.71-8.63,6.76-3.21,19.47,5.16,23.75,4.3,2.2,9.61,2.41,14.34,2.11,2.38-.15,8.38-2.53,9.16,1.69,1.3,6.98-9.02,3.77-12.45,3.55-7.52-.49-13.75,1.57-15.97,9.48-4.69,16.76,20.78,33.09,34.04,22.98,12.23-9.32-6.52-19.99-14.48-12.73l-.76,3.98c-6.17-4.79-13.26-19-.47-19.91,18.4-1.31,31.35,23.12,11.67,32.66-9.74,4.72-24.65,4.55-34.59.43-18.78-7.78-21.02-28.59-.33-35.69,7.89-2.71,14-1.78,21.78-2.69.73-.09,2.57-.16,2.16-1.36-11.33.08-25.73.59-34.07-8.54-7.21-7.89-8.4-17.11.49-24.19,9.36-7.46,23.73-4.32,33.44.85,2.74,1.46,7.39,5.71,9.57,6.47,5.66,1.97,10.6-6.07,7.03-10.65h0Z"/>
    </g>
    <g class="cls-5">
      <path class="cls-14" d="M474.17,236.83l3.02-11.8c5.65-14.1,25.35-21.8,37.9-11.77,12.71,10.15,2.59,26.04-8.79,31.93l-9.96,5.27c6.37-.32,12.83.67,18.27,4.18,11.52,7.44,10.56,20.36.27,28.43-4.43,3.48-11.78,5.03-17.32,5.39-12.57.81-25.77-.67-38.34-.51v-77.17l.72-.73h13.01c.16,0,.73.64,1.2.49v26.29h0ZM502.92,215.58c-3.21-2.91-8.27-1.65-11.56.4-3.21,2-10.07,10.27-11.98,13.7-3.38,6.09-4.92,14.38-5.2,21.27,9.72-5.09,30.61-15.45,31.33-28.01.14-2.44-.77-5.71-2.58-7.36h0ZM474.17,285.52c12.86-.81,33.96-5.94,32.79-22.66-.53-7.57-7.71-12.09-14.66-9.41-7.97,3.07-18.14,16.26-18.14,25.01v7.06h0Z"/>
    </g>
    <g class="cls-6">
      <path class="cls-14" d="M551.69,277.23h31.11c1.97,3.31-.1,7.81.25,11.47h-46.79v-79.31c4.3-.21,9.44-1.03,13.71-.52.73.09,1.28.06,1.72.77v67.59h0Z"/>
    </g>
  </g>
  <g>
    <path class="cls-14" d="M497,.22v79.77h-13.33V.22c4.51,0,8.82-.5,13.33,0Z"/>
    <path class="cls-14" d="M594.77.22v79.77h-14.81V.22c5.02,0,9.8-.5,14.81,0Z"/>
    <path class="cls-14" d="M468.86,0v11.41l-21.09.5v65.72l-.69.74h-14.44c-.16,0,.02,2.33-2.45,1.41-.86-.32-1.86-2.62-1.71-3.63.23-1.56,4.58-3.46,5.07-5.47V11.9l-22.47,5.46V0h57.77Z"/>
    <path class="cls-14" d="M654.03,0v11.41l-20.01.5v65.72l-.65.74h-13.7c-.15,0,.02,2.33-2.32,1.41-.81-.32-1.76-2.62-1.62-3.63.22-1.56,4.35-3.46,4.81-5.47V11.9l-21.32,5.46V0h54.81Z"/>
    <path class="cls-14" d="M390.02,51.78c-.79.01-.65,1.4-.94,2.07-6.83,15.94-22.19,33.49-40.41,22.94-7.7-4.46-9.47-15.43-4.19-22.8,7.37-10.3,24.66-12.37,35.85-12.52,2.17-.03,5.39,1.63,7.44-.21-5.33-2.07-11.21-2.49-16.77-3.82-8.5-2.03-25.8-6.15-26.98-17.68-2.25-21.94,29.04-24.2,41.51-13.71,3.56,2.99,3.29,6.71,8.78,6.13,4.77-.5,8.52-5.94,6.09-10.75h1.13c2.69,5.92,2.13,12.84,2.05,19.32-.01,1.16-.48,2.23-.49,3.38-.18,18.17.17,36.35.02,54.51h-13.08v-26.88ZM384.46,21.63c-2.29-3.93-8.01-11.18-11.93-13.21-10.68-5.54-17.59,4.23-16.34,15.27.39,3.45,3.72,7.47,6.46,9.13.4.24,3.18,1.75,2.57.15-.52-1.35-3.34-3.75-3.85-5.61-.66-2.43.45-6.07.2-7.03-.19-.71-1.99-1.5-2.64-2.05-1.7-1.45,1.85.12,2.11.16,2.27.35,4.67.24,6.91.82,4.93,1.26,15.81,10.24,19.11,14.48.79,1.02,1.66,2.59,2.07,3.87.79.12.46-1.13.4-1.65-.44-3.74-3.18-11.09-5.07-14.32h0ZM387.32,39.07c.24-.24-2.19-3.96-2.52-4.35-1.21-1.46-8.59-8.52-9.94-9.26-4.26-2.34-6.42,3.37-5.32,7.25,1.17,4.12,14.18,5.63,17.78,6.36ZM390.02,43.96c-7.85,1.63-27.41,4.92-31.37,13.16-2.78,5.78,1.69,9.4,6.78,9.82,7.28.6,17.23-3.61,20.9-10.62.87-1.67,4.61-11.22,3.69-12.37h0Z"/>
    <path class="cls-14" d="M236.96,40.85c1.42,7.4,7.4,14.2,12.74,18.91,6.65,5.86,17.61,13.28,25.92,6.99.31-.11.33.47.23.74-.21.5-5.9,6.52-6.72,7.22-15.19,13.12-29.09-.58-36.99-14.97-2.12-3.87-4.85-7.78-2.68-12.26,1.71-3.51,10.57-17.11,13.06-19.82,3.28-3.57,8.33-6.74,12-10.48.97-.99,2.45-1.65,3.27-2.98l-.69-1.24h-30.55c-.54,0-3.53,3.97-3.01,5.23.57,7.96,1.96,16.49,2.34,24.39.56,11.85-.46,24.23-.02,36.14h-12.27c-.66-.44-.64-.99-.72-1.72-.82-7.53.35-15.9.51-23.42.16-8.03-1.35-21.51,2.56-28.13,2.4-4.06,6.49-8.31,9-12.48l-10.65-.5L213.82,0h53.01C269.79,0,274.18,4.37,275.29,7.33c3.05,8.1-1.42,16.38-7.53,21.08-2.33,1.79-20.99,12.44-22.7,12.44h-8.1,0Z"/>
    <path class="cls-14" d="M338.03,0v10.82l-.7.75h-40.18v22.64h39.95v11.07h-39.25l-.7.75v21.89l41.34.5v11.57h-54.58L283.68,0h54.35Z"/>
    <path class="cls-14" d="M205.05,66.71c-16.87,21.95-50.14,15.6-59.5-10.91C136.42,29.96,152.17-2.26,179.93.12c9.11.78,11.4,3.89,17.23,10.13.37.4.4.69,1.1.51,1.37-2.75,1.75-5.75,2.6-8.63.24-.82-.19-1.27,1.03-1.05-.83,9.3,8.28,24.48-.68,31.47-5.05,3.95-10.08,2.2-15.14-.51-.12-.52-.03-.96.21-1.43.66-1.33,3.56-4.41,4.67-6.14,1.03-1.61,6.27-10.23,5.93-11.46-7.32-6.23-19-6.46-27.21-2.12-17.8,9.42-17.86,41.98-.95,52.55,12.45,7.79,29.59,4.6,35.32-10.46.28-.73-.27-1.31,1.02-1.07v14.77h0Z"/>
    <path class="cls-14" d="M519.95,0l14.2,64.54c4.44-1.29,4.92-.9,6.28-5.61,4.02-14,6-29.18,9.72-43.31-1.85-4.97,0-7.76,1.83-12.01,1.11-2.58-.34-3.99,3.48-3.38,4.46.71,9.62,3.78,14.13,4.83l-19.42,74.93-27.8.02-17.96-73.7L519.95,0Z"/>
    <path class="cls-14" d="M679.38,8.02c1.21,1.91,7.41,13.98,8.13,14.42,1.28.79,4.25-.27,5.53-1.05,8.61-5.21,7.13-21.77,18.25-21.38,5.71.2,12.35,2.69,18.29,2.47l-15.32,46.12c-2.51,3.28-3.23,8.59-4.84,12.61-4.04,10.07-13.25,22.57-25.09,17.71-4.44-1.82-12.74-13.7-17.23-7.6-1.56,2.11-.67,3.75-.76,6.05-2.83-4.86-4.01-16.6.21-20.82,4.43-4.44,7.52,1.25,9.99,4.67h.67c.15-1.9,2.09-1.94,3.31-.78,1.98,3.63-1.71,8.39,1.83,10.79,4.45,3.03,9.43-3.92,11.34-7.56,2.88-5.5,4.62-12.17,7.17-17.88-2.77.18-4.65,2.13-7.64,2.24-1.71.06-4.96-.54-6.29-1.71l-24.01-39.12c.12-.65,9.81-7.03,10.45-7.1,1.13-.12,4.03,5.67,4.86,6.97.31.48.98.68,1.15.95h0ZM714.73,2.01c-12.83-4.69-12.69,12.12-15.03,21.03-1.06,4.01-4.41,10.08-2.97,13.9.36.96,3.76,6.64,4.35,6.65,5.08-11.75,7.96-24.44,12.21-36.51.25-.71.85-.69,1.07-1.35.38-1.17.47-2.49.37-3.72h0Z"/>
  </g>
</svg>