<?xml version="1.0" encoding="UTF-8"?>
<svg id="Layer_1" data-name="Layer 1" xmlns="http://www.w3.org/2000/svg" viewBox="0 0 333.7 188.63">
  <defs>
    <style>
      .cls-1 {
        fill: #fff;
      }
    </style>
  </defs>
  <path class="cls-1" d="M93.4.02c27.89-.62,55.09,12.09,73.49,32.6C181.89,15.93,203.37,3.74,225.85.87c79-10.08,135.6,74.74,93.55,143.29-33.02,53.84-111.36,59.86-152.52,12.06C118.97,211.3,27.78,193.33,4.78,123.85-15.26,63.28,30.26,1.43,93.4.02ZM89.59,47.59V10.72c-16.61,4.45-29.81,20.63-33.91,36.87h33.91ZM135.47,47.59c-6.13-16.06-17.39-32.36-34.91-36.87v36.87h34.91ZM233.22,47.59V10.72c-17.67,4.54-28.83,20.63-34.91,36.87h34.91ZM278.1,47.59c-4.67-16.32-16.88-32.35-33.91-36.87v36.87h33.91ZM25.76,47.59h17.45l7.31-15.62,8.64-13.29c-6.45,2.83-13.07,6.94-18.45,11.46-1.62,1.36-16.66,15.97-14.95,17.45ZM146.61,47.42c6.85.96,11.7.87,13.33-6.81-7.54-9.35-17.58-16.68-28.44-21.92-.53.56,6.56,10.27,7.49,11.94,2.99,5.36,5.35,11.1,7.63,16.79ZM187.17,47.42c2.28-5.69,4.63-11.43,7.63-16.79.93-1.67,8.02-11.38,7.49-11.94-10.74,5.3-21.06,12.46-28.4,21.92,1.46,7.55,6.39,7.81,13.29,6.81ZM308.02,47.59c-.47-2.39-2.9-5.13-4.47-6.99-7.54-8.91-18.16-17.37-28.93-21.92l10.01,15.91,5.94,13h17.45ZM40.72,57.55h-21.94c-4.01,10.2-7.79,20.75-7.98,31.89h25.93c-.43-10.76,1.59-21.45,3.99-31.89ZM89.59,57.55h-37.9c-3.16,10.31-4.73,21.09-4.99,31.89h42.89v-31.89ZM143.45,89.44c-.18-10.57-1.12-22.4-5.49-31.89h-37.4v31.89h42.89ZM154.42,89.44h24.93c-.48-8-3.1-24.92-7.88-31.27-.79-1.06-8.33-1.11-9.18,0-2.61,3.43-9.97,29.16-7.88,31.27ZM233.22,57.55h-37.4c-4.57,9.36-5.17,21.44-5.49,31.89h42.89v-31.89ZM282.09,57.55h-37.9v31.89h42.89c-.33-10.76-1.91-21.58-4.99-31.89ZM315,57.55h-21.94c2.4,10.44,4.42,21.13,3.99,31.89h25.93c-.1-11.21-4.19-21.61-7.98-31.89ZM40.72,131.29c-.78-4.52-2.25-9.03-2.86-13.59-.65-4.87-.37-11.54-1.13-15.81-.2-1.11-.52-1.86-1.5-2.49H10.8c.19,11.14,3.97,21.69,7.98,31.89h21.94ZM89.59,99.41h-42.89c.67,10.49,1.31,22.42,5.49,31.89h37.4v-31.89ZM143.45,99.41h-42.89v31.89h37.4c3.09-3.1,6.75-30.63,5.49-31.89ZM179.36,99.41h-24.93c.31,7.94,3.14,25.04,7.88,31.27.85,1.11,8.39,1.06,9.18,0,2.6-3.45,9.87-29.25,7.88-31.27ZM233.22,99.41h-42.89c.32,10.45.92,22.53,5.49,31.89h37.4v-31.89ZM287.07,99.41h-42.89v31.89h37.4c2.67-3.07,6.64-30.73,5.49-31.89ZM322.98,99.41h-25.93c.43,10.76-1.59,21.45-3.99,31.89h21.94c3.83-10.28,7.48-20.76,7.98-31.89ZM43.22,141.26h-17.45c.12,2.2,2.14,4.35,3.48,5.99,7.5,9.19,19.02,18.23,29.93,22.91l-9.63-15.29-6.32-13.62ZM89.59,141.26h-33.91c4.26,16.18,17.17,32.43,33.91,36.87v-36.87ZM135.47,141.26h-34.91v36.87c17.49-4.67,28.86-20.76,34.91-36.87ZM131.49,170.16c5.6-1.68,28.34-17.69,28.59-22.43-2.51-7.23-6.43-7.21-13.48-6.3-2.28,5.69-4.63,11.43-7.63,16.79-.93,1.67-8.02,11.38-7.49,11.94ZM187.17,141.43c-6.9-1-11.83-.74-13.29,6.81,7.35,9.46,17.66,16.62,28.4,21.92.53-.56-6.56-10.27-7.49-11.94-2.99-5.36-5.35-11.1-7.63-16.79ZM233.22,141.26h-34.91c6.13,16.06,17.39,32.36,34.91,36.87v-36.87ZM278.1,141.26h-33.91v36.87c16.64-4.37,29.64-20.81,33.91-36.87ZM308.02,141.26h-17.45l-5.94,13-10.01,15.91c6.45-2.83,13.07-6.94,18.45-11.46,1.62-1.36,16.66-15.97,14.95-17.45Z"/>
</svg>