<?xml version="1.0" encoding="UTF-8"?>
<svg id="Layer_1" data-name="Layer 1" xmlns="http://www.w3.org/2000/svg" viewBox="0 0 1183.34 1275.59">
  <defs>
    <style>
      .cls-1 {
        fill: #e5ded2;
      }
    </style>
  </defs>
  <path class="cls-1" d="M989.3,1017.9c-29.2,31.72-39.74,73.4-68.44,109.76-164.32,208.26-493.43,177.35-686.2,26.53C-289.73,743.94,137.8-253.11,798.73,59.8c51.69,24.47,138.11,97.8,177.42,110.78,108.06,35.67,186.4-62.42,142.14-160.93,20.44-21.67,47.21,74.89,49.38,83.24,19.76,75.98,30.69,233.46-29.28,293.17-93.17,92.75-208.38-153.88-255.54-205.63-126.43-138.7-393.66-68.28-507.79,60.63-295.9,334.23-54.61,983.15,420.94,807.31,45.78-16.93,157.02-101.62,148.44-154.59-1.09-6.74-19.87-7.73-26.98-20.07-8.16-14.16-8.12-39.83-17.63-58.28-11.15-21.62-39.74-45.04-50.87-70.46h-360.33c-.8-10.86-.02-21.47,1.85-32.24,3.25-18.74,30.26-103.41,38.05-121.2,3.87-8.83,9.45-15.17,17-20.92h622.05l11.38,11.37v663.35c-62.91,7.44-127.18,14.19-189.65,0v-227.43ZM974.05,782.85v-37.83h-7.43v37.83h7.43Z"/>
  <path class="cls-1" d="M-467.36-1114.03l-89.88,20.47C-1010.58-936.65-962.44-137.24-491.72-42.8-204.67,14.8-13.23-221.04-78.4-492.31c-29.93-14.01-143.17-35.84-160.97-7.61-25.45,40.37,20.83,102.87-29.91,173.82-46.62,65.19-228.38,164.82-308.16,163.95-81.35-.88-202.13-76.96-217.46-160.06,25.95-2.16,45.43,18.5,68.73,26.41,21.97,7.47,49.16,7.69,67.84,15.96,34.27,15.17,53.79,55.63,97.62,62.36,20.58,3.16,45.93,3.63,66.65,1.71,71.64-6.62,231.09-102.56,239.94-179.56,3.62-31.45-26.55-131.05,7.74-152.03,10.96-6.71,137.22,10.23,159.95,19.49-36.75-276.79-319.4-485.68-594.07-384.39,93.01-131.01,287.3-208.56,441.64-152.27C271.32-878.47,265.77-30.21-269.21,130.79c-540.4,162.63-973.73-363.1-769.69-875.8,87.57-220.04,332.84-381.46,571.55-369.03Z"/>
</svg>