<?xml version="1.0" encoding="UTF-8"?>
<svg id="Layer_1" data-name="Layer 1" xmlns="http://www.w3.org/2000/svg" viewBox="0 0 999.29 1275.59">
  <defs>
    <style>
      .cls-1 {
        fill: #e5ded2;
      }
    </style>
  </defs>
  <path class="cls-1" d="M999.29,5.31v1270.28h-239.83v-535.28H255.82v535.28H0V5.31h255.82v543.27l483.74.26c6.71.91,19.9-8.26,19.9-12.24V5.31c81.03-1.31,159.1-11.26,239.83,0Z"/>
  <path class="cls-1" d="M-739.15-746.75L-499.5,282.33c74.82-20.58,83.06-14.33,105.9-89.5,67.84-223.23,101.15-465.33,163.98-690.69-31.21-79.28.02-123.78,30.95-191.44,18.78-41.09-5.77-63.56,58.66-53.91,75.28,11.28,162.28,60.3,238.38,77.02L-229.27,528.59l-469.13.25-303.01-1175.28,262.26-100.31Z"/>
</svg>