<?xml version="1.0" encoding="UTF-8"?>
<svg id="Layer_1" data-name="Layer 1" xmlns="http://www.w3.org/2000/svg" viewBox="0 0 1022.36 1275.59">
  <defs>
    <style>
      .cls-1 {
        fill: #e5ded2;
      }
    </style>
  </defs>
  <path class="cls-1" d="M897.47,0c11.06,2.24,71.08,40.62,80.89,50.71,56.9,58.48,57.05,173.39,9.42,238.87-137.53,173.89-299.48,331.11-437.11,503.91-8.01,10.06-46.14,59.12-46.91,64.97-1.75,13.27,33.71,33.74-1.33,54.9l-247.15-44.36v195.32c34.06,17.75,96.34,29.01,95.83,80.14-.31,31.03-82.53,22.98-102.73,36.56l-1.08,94.56H0V11.96L11.97,0h885.5ZM706.01,191.34H255.28v653.74c132.77-130,234.23-288.29,350.99-432.23,9.08-11.2,25.17-16.58,36.14-29.97,23.12-28.22,92.51-115.05,92.18-147.89-.14-13.99-17.21-40.51-28.57-43.65Z"/>
</svg>