<?xml version="1.0" encoding="UTF-8"?>
<svg id="Layer_1" data-name="Layer 1" xmlns="http://www.w3.org/2000/svg" viewBox="0 0 143.95 109.77">
  <defs>
    <style>
      .cls-1 {
        fill: #fff;
      }
    </style>
  </defs>
  <path class="cls-1" d="M63.66,108.42c-4.16,3.67-10.19-.77-8.45-6.01L75.92,4.18c1.91-5.46,8.59-5.66,10.15-.11l-20.75,101.38c-.23.72-1.15,2.51-1.66,2.96Z"/>
  <path class="cls-1" d="M39.13,20.87c4.62.12,6.14,5.77,3.22,8.94l-29,24.75,29.23,25.06c3.67,6.74-1.95,11.19-8.32,6.69-10.96-7.74-21.15-19.57-32.27-27.47-5.76-5.6,2.52-10.56,6.45-14.07,7.18-6.41,17.66-16.11,25.27-21.43,1.59-1.11,3.37-2.52,5.43-2.47Z"/>
  <path class="cls-1" d="M104.82,20.87c2.06-.05,3.84,1.36,5.43,2.47,7.62,5.33,18.1,15.01,25.27,21.43,3.93,3.51,12.21,8.47,6.45,14.07-11.12,7.9-21.31,19.73-32.27,27.47-6.37,4.5-11.99.05-8.32-6.69l29.23-25.06-29-24.75c-2.93-3.17-1.41-8.82,3.22-8.94Z"/>
</svg>