<?xml version="1.0" encoding="UTF-8"?>
<svg id="Layer_1" data-name="Layer 1" xmlns="http://www.w3.org/2000/svg" viewBox="0 0 1093.63 1275.59">
  <defs>
    <style>
      .cls-1 {
        fill: #e5ded2;
      }
    </style>
  </defs>
  <path class="cls-1" d="M418.67,651.34c24.32,118.01,127.09,226.47,218.81,301.61,114.16,93.51,302.39,211.77,444.92,111.49,5.38-1.7,5.76,7.54,3.86,11.76-3.6,7.97-101.37,103.89-115.36,115.11-260.72,209.14-499.51-9.21-635.05-238.76-36.44-61.72-83.33-124.13-45.95-195.56,29.29-55.98,181.5-272.88,224.26-316.03,56.35-56.86,142.98-107.54,206.06-167.18,16.7-15.79,42.09-26.37,56.08-47.53l-11.88-19.72H239.84c-9.27,0-60.7,63.24-51.72,83.35,9.88,126.9,33.66,262.94,40.13,388.94,9.69,188.98-7.91,386.4-.33,576.21H17.29c-11.34-6.97-10.97-15.84-12.33-27.4-14.1-120.06,6.07-253.47,8.68-373.41,2.79-128.01-23.18-342.94,43.91-448.6,41.13-64.78,111.34-132.5,154.47-199.02l-182.85-7.98L21.26,0h910.07c50.96,0,126.22,69.66,145.37,116.84,52.45,129.2-24.43,261.13-129.28,336.12-40,28.61-360.39,198.38-389.67,198.38h-139.09Z"/>
  <path class="cls-1" d="M418.67,651.34c24.32,118.01,127.09,226.47,218.81,301.61,114.16,93.51,302.39,211.77,444.92,111.49,5.38-1.7,5.76,7.54,3.86,11.76-3.6,7.97-101.37,103.89-115.36,115.11-260.72,209.14-499.51-9.21-635.05-238.76-36.44-61.72-83.33-124.13-45.95-195.56,29.29-55.98,181.5-272.88,224.26-316.03,56.35-56.86,142.98-107.54,206.06-167.18,16.7-15.79,42.09-26.37,56.08-47.53l-11.88-19.72H239.84c-9.27,0-60.7,63.24-51.72,83.35,9.88,126.9,33.66,262.94,40.13,388.94,9.69,188.98-7.91,386.4-.33,576.21H17.29c-11.34-6.97-10.97-15.84-12.33-27.4-14.1-120.06,6.07-253.47,8.68-373.41,2.79-128.01-23.18-342.95,43.91-448.6,41.13-64.78,111.34-132.5,154.47-199.02l-182.85-7.98L21.26,0h910.07c50.96,0,126.22,69.66,145.37,116.84,52.45,129.2-24.43,261.13-129.28,336.12-40,28.61-360.39,198.38-389.67,198.38h-139.09Z"/>
</svg>