<?xml version="1.0" encoding="UTF-8"?>
<svg id="Layer_1" data-name="Layer 1" xmlns="http://www.w3.org/2000/svg" viewBox="0 0 936.11 1275.59">
  <defs>
    <style>
      .cls-1 {
        fill: #e5ded2;
      }
    </style>
  </defs>
  <path class="cls-1" d="M872.81,30.39c13.6-13.78,33.81,37.22,36.28,43.47,30.66,77.63,60.07,338.8-70.4,329.32-83.18-6.05-106.18-168.3-152.24-205.62-9.29-7.52-60.45-13.95-76.1-15.15-80.29-6.15-191.46-13.73-266.49,14.73-153.26,58.13-95.81,226.88,22.84,289.56,35.87,18.95,200.95,77.74,236.04,76.12,39.64-1.84,84.95-47.12,117.59-58,11.28-3.76,18.88-6.85,27.25,4.26,13.39,41.9-48.06,64.93-30.91,98.92,6.02,11.93,79.42,51.8,98.86,68.57,175.54,151.53,157.63,407.19-42.21,527.38-198.79,119.56-610.07,95.49-740.22-117.86-100.65-164.99,45.01-278.44,210.31-255.78,28.26,3.87,136.38,47.85,154.21,66.3,5.1,5.28,8.25,14.48-1.28,15.15-123.47,64.88-80.35,207.91,25.21,272.55,233.3,142.87,457.53-100.21,246.1-306.74C502.8,716.52,27.27,585.65,5.56,338.4-20.1,45.99,291.43-56.02,528.21,28.89c98.37,35.28,175.04,169.04,271.41,160.7,74.64-6.46,108.75-98.03,73.19-159.19Z"/>
</svg>