<?xml version="1.0" encoding="UTF-8"?>
<svg id="Layer_1" data-name="Layer 1" xmlns="http://www.w3.org/2000/svg" viewBox="0 0 978.5 1275.59">
  <defs>
    <style>
      .cls-1 {
        fill: #e5ded2;
      }
    </style>
  </defs>
  <path class="cls-1" d="M907.26,17.47c15.73-15.84,44.82,61.53,47.54,69.68,22.47,67.24,49.58,297.47-26.6,333.2-97.02,45.51-171.48-128.97-217.93-187.18-83.33-104.44-258.17-184.44-378.57-91.12-139,107.74-51.73,310.41,83.17,378.77,69.35,35.14,154.83,38.43,231.07,33.62,38.34-2.41,134.95-40.3,147.63,26.89,20.99,111.25-145.32,60.1-200.6,56.55-121.13-7.77-221.6,24.96-257.32,151.21-75.59,267.2,334.72,527.57,548.38,366.45,197.09-148.62-104.98-318.78-233.26-202.93l-12.18,63.4c-99.34-76.37-213.64-302.97-7.58-317.54,296.48-20.96,505.09,368.69,188.09,520.79-156.99,75.33-397.15,72.56-557.34,6.85-302.49-124.08-338.66-455.86-5.27-569.11,127.04-43.15,225.59-28.37,350.89-42.82,11.85-1.37,41.43-2.62,34.86-21.75-182.52,1.34-414.61,9.47-548.9-136.15C-22.74,330.4-41.97,183.38,101.17,70.53,251.98-48.36,483.49,1.68,639.9,84.08c44.2,23.28,119.03,91.1,154.1,103.18,91.14,31.42,170.75-96.82,113.26-169.8Z"/>
</svg>