{
  "asset": {
    "generator": "Khronos glTF Blender I/O v1.8.19",
    "version": "2.0"
  },
  "extensionsUsed": [
    "KHR_materials_clearcoat",
    "KHR_materials_transmission"
  ],
  "scene": 0,
  "scenes": [
    {
      "name": "Scene",
      "nodes": [
        11
      ]
    }
  ],
  "nodes": [
    {
      "mesh": 0,
      "name": "win door l.001",
      "translation": [
        -0.15476185083389282,
        0.6963286399841309,
        -0.7349133491516113
      ],
      "rotation": [
        0,
        0,
        0,
        1
      ],
      "scale": [
        1,
        1,
        1
      ]
    },
    {
      "children": [
        0
      ],
      "mesh": 1,
      "name": "door l",
      "translation": [
        0.9139900207519531,
        0.6834518909454346,
        0.6375190019607544
      ],
      "rotation": [
        0,
        0,
        0,
        1
      ],
      "scale": [
        1,
        1,
        1
      ]
    },
    {
      "mesh": 2,
      "name": "win door r.001",
      "translation": [
        0.15476185083389282,
        0.6963286399841309,
        -0.7349134683609009
      ],
      "rotation": [
        0,
        0,
        0,
        1
      ],
      "scale": [
        1,
        1,
        1
      ]
    },
    {
      "children": [
        2
      ],
      "mesh": 3,
      "name": "door r",
      "translation": [
        -0.9139900207519531,
        0.6834518909454346,
        0.637519121170044
      ],
      "rotation": [
        0,
        0,
        0,
        1
      ],
      "scale": [
        1,
        1,
        1
      ]
    },
    {
      "mesh": 4,
      "name": "interior",
      "rotation": [
        0,
        0,
        -0.7071066498756409,
        0.70710688829422
      ],
      "scale": [
        0.4447769522666931,
        0.3981696665287018,
        0.3981696665287018
      ],
      "translation": [
        0.941368043422699,
        0.6001321077346802,
        -0.07444725185632706
      ]
    },
    {
      "mesh": 5,
      "name": "number",
      "translation": [
        0,
        0.7933153510093689,
        -1.7683265209197998
      ],
      "rotation": [
        0,
        0,
        0,
        1
      ],
      "scale": [
        1,
        1,
        1
      ]
    },
    {
      "mesh": 6,
      "name": "wheel bl",
      "rotation": [
        0,
        0.7071068286895752,
        0,
        0.7071067094802856
      ],
      "scale": [
        0.32487770915031433,
        0.32487770915031433,
        0.32487770915031433
      ],
      "translation": [
        0.7817087173461914,
        0.3252466320991516,
        -1.2408537864685059
      ]
    },
    {
      "mesh": 7,
      "name": "wheel br",
      "rotation": [
        0,
        0.7071068286895752,
        0,
        0.7071067094802856
      ],
      "scale": [
        0.32487770915031433,
        0.32487770915031433,
        0.32487770915031433
      ],
      "translation": [
        -0.781708836555481,
        0.3252466320991516,
        -1.2408536672592163
      ]
    },
    {
      "mesh": 8,
      "name": "wheel fl",
      "rotation": [
        0,
        0.7071068286895752,
        0,
        0.7071067094802856
      ],
      "scale": [
        0.32487770915031433,
        0.32487770915031433,
        0.32487770915031433
      ],
      "translation": [
        0.7817087173461914,
        0.3252466320991516,
        1.0714701414108276
      ]
    },
    {
      "mesh": 9,
      "name": "wheel fr",
      "rotation": [
        0,
        0.7071068286895752,
        0,
        0.7071067094802856
      ],
      "scale": [
        0.32487770915031433,
        0.32487770915031433,
        0.32487770915031433
      ],
      "translation": [
        -0.781708836555481,
        0.3252466320991516,
        1.0714701414108276
      ]
    },
    {
      "mesh": 10,
      "name": "windows"
    },
    {
      "children": [
        1,
        3,
        4,
        5,
        6,
        7,
        8,
        9,
        10
      ],
      "mesh": 11,
      "name": "car body",
      "translation": [
        0,
        0,
        0.08045371621847153
      ],
      "rotation": [
        0,
        0,
        0,
        1
      ],
      "scale": [
        1,
        1,
        1
      ]
    }
  ],
  "materials": [
    {
      "alphaMode": "BLEND",
      "doubleSided": true,
      "extensions": {
        "KHR_materials_clearcoat": {
          "clearcoatFactor": 0.03181818127632141,
          "clearcoatRoughnessFactor": 0.37454500794410706
        },
        "KHR_materials_transmission": {
          "transmissionFactor": 0.9663636684417725
        }
      },
      "name": "WINDOW",
      "pbrMetallicRoughness": {
        "baseColorTexture": {
          "index": 0,
          "texCoord": 0
        },
        "metallicFactor": 0,
        "roughnessFactor": 0,
        "baseColorFactor": [
          1,
          1,
          1,
          1
        ]
      },
      "emissiveFactor": [
        0,
        0,
        0
      ]
    },
    {
      "doubleSided": true,
      "name": "BASIC COLOR",
      "pbrMetallicRoughness": {
        "baseColorTexture": {
          "index": 1,
          "texCoord": 0
        },
        "metallicFactor": 0.5,
        "baseColorFactor": [
          1,
          1,
          1,
          1
        ],
        "roughnessFactor": 1
      },
      "emissiveFactor": [
        0,
        0,
        0
      ],
      "alphaMode": "OPAQUE"
    }
  ],
  "meshes": [
    {
      "name": "Circle.160",
      "primitives": [
        {
          "attributes": {
            "POSITION": 0,
            "NORMAL": 1,
            "TEXCOORD_0": 2
          },
          "indices": 3,
          "material": 0,
          "mode": 4
        }
      ]
    },
    {
      "name": "Circle.168",
      "primitives": [
        {
          "attributes": {
            "POSITION": 4,
            "NORMAL": 5,
            "TEXCOORD_0": 6
          },
          "indices": 7,
          "material": 1,
          "mode": 4
        }
      ]
    },
    {
      "name": "Circle.159",
      "primitives": [
        {
          "attributes": {
            "POSITION": 8,
            "NORMAL": 9,
            "TEXCOORD_0": 10
          },
          "indices": 11,
          "material": 0,
          "mode": 4
        }
      ]
    },
    {
      "name": "Circle.167",
      "primitives": [
        {
          "attributes": {
            "POSITION": 12,
            "NORMAL": 13,
            "TEXCOORD_0": 14
          },
          "indices": 15,
          "material": 1,
          "mode": 4
        }
      ]
    },
    {
      "name": "Circle.166",
      "primitives": [
        {
          "attributes": {
            "POSITION": 16,
            "NORMAL": 17,
            "TEXCOORD_0": 18
          },
          "indices": 19,
          "material": 1,
          "mode": 4
        }
      ]
    },
    {
      "name": "Circle.165",
      "primitives": [
        {
          "attributes": {
            "POSITION": 20,
            "NORMAL": 21,
            "TEXCOORD_0": 22
          },
          "indices": 23,
          "material": 1,
          "mode": 4
        }
      ]
    },
    {
      "name": "Circle.164",
      "primitives": [
        {
          "attributes": {
            "POSITION": 24,
            "NORMAL": 25,
            "TEXCOORD_0": 26
          },
          "indices": 27,
          "material": 1,
          "mode": 4
        }
      ]
    },
    {
      "name": "Circle.163",
      "primitives": [
        {
          "attributes": {
            "POSITION": 28,
            "NORMAL": 29,
            "TEXCOORD_0": 30
          },
          "indices": 31,
          "material": 1,
          "mode": 4
        }
      ]
    },
    {
      "name": "Circle.162",
      "primitives": [
        {
          "attributes": {
            "POSITION": 32,
            "NORMAL": 33,
            "TEXCOORD_0": 34
          },
          "indices": 27,
          "material": 1,
          "mode": 4
        }
      ]
    },
    {
      "name": "Circle.161",
      "primitives": [
        {
          "attributes": {
            "POSITION": 35,
            "NORMAL": 36,
            "TEXCOORD_0": 37
          },
          "indices": 31,
          "material": 1,
          "mode": 4
        }
      ]
    },
    {
      "name": "Circle.158",
      "primitives": [
        {
          "attributes": {
            "POSITION": 38,
            "NORMAL": 39,
            "TEXCOORD_0": 40
          },
          "indices": 41,
          "material": 0,
          "mode": 4
        }
      ]
    },
    {
      "name": "Circle.169",
      "primitives": [
        {
          "attributes": {
            "POSITION": 42,
            "NORMAL": 43,
            "TEXCOORD_0": 44
          },
          "indices": 45,
          "material": 1,
          "mode": 4
        }
      ]
    }
  ],
  "textures": [
    {
      "sampler": 0,
      "source": 0
    },
    {
      "sampler": 0,
      "source": 0
    }
  ],
  "images": [
    {
      "bufferView": 46,
      "mimeType": "image/png",
      "name": "001_COLOR_BASIC"
    }
  ],
  "accessors": [
    {
      "bufferView": 0,
      "componentType": 5126,
      "count": 4,
      "max": [
        0.0739404559135437,
        0.2884916663169861,
        0.6294324398040771
      ],
      "min": [
        -0.0739404559135437,
        -0.2884916663169861,
        -0.6294324398040771
      ],
      "type": "VEC3",
      "byteOffset": 0
    },
    {
      "bufferView": 1,
      "componentType": 5126,
      "count": 4,
      "type": "VEC3",
      "byteOffset": 0
    },
    {
      "bufferView": 2,
      "componentType": 5126,
      "count": 4,
      "type": "VEC2",
      "byteOffset": 0
    },
    {
      "bufferView": 3,
      "componentType": 5123,
      "count": 6,
      "type": "SCALAR",
      "byteOffset": 0
    },
    {
      "bufferView": 4,
      "componentType": 5126,
      "count": 310,
      "max": [
        0.17433108389377594,
        1.0117037296295166,
        0.012738406658172607
      ],
      "min": [
        -0.22870230674743652,
        -0.40165239572525024,
        -1.427574872970581
      ],
      "type": "VEC3",
      "byteOffset": 0
    },
    {
      "bufferView": 5,
      "componentType": 5126,
      "count": 310,
      "type": "VEC3",
      "byteOffset": 0
    },
    {
      "bufferView": 6,
      "componentType": 5126,
      "count": 310,
      "type": "VEC2",
      "byteOffset": 0
    },
    {
      "bufferView": 7,
      "componentType": 5123,
      "count": 468,
      "type": "SCALAR",
      "byteOffset": 0
    },
    {
      "bufferView": 8,
      "componentType": 5126,
      "count": 4,
      "max": [
        0.0739404559135437,
        0.2884916067123413,
        0.6294324994087219
      ],
      "min": [
        -0.0739404559135437,
        -0.2884916365146637,
        -0.6294325590133667
      ],
      "type": "VEC3",
      "byteOffset": 0
    },
    {
      "bufferView": 9,
      "componentType": 5126,
      "count": 4,
      "type": "VEC3",
      "byteOffset": 0
    },
    {
      "bufferView": 10,
      "componentType": 5126,
      "count": 4,
      "type": "VEC2",
      "byteOffset": 0
    },
    {
      "bufferView": 11,
      "componentType": 5123,
      "count": 6,
      "type": "SCALAR",
      "byteOffset": 0
    },
    {
      "bufferView": 12,
      "componentType": 5126,
      "count": 312,
      "max": [
        0.22870230674743652,
        1.011703610420227,
        0.012738406658172607
      ],
      "min": [
        -0.1743314266204834,
        -0.40165236592292786,
        -1.4275751113891602
      ],
      "type": "VEC3",
      "byteOffset": 0
    },
    {
      "bufferView": 13,
      "componentType": 5126,
      "count": 312,
      "type": "VEC3",
      "byteOffset": 0
    },
    {
      "bufferView": 14,
      "componentType": 5126,
      "count": 312,
      "type": "VEC2",
      "byteOffset": 0
    },
    {
      "bufferView": 15,
      "componentType": 5123,
      "count": 468,
      "type": "SCALAR",
      "byteOffset": 0
    },
    {
      "bufferView": 16,
      "componentType": 5126,
      "count": 686,
      "max": [
        0.8335265517234802,
        -0.3350330889225006,
        2.4331023693084717
      ],
      "min": [
        -1.8726791143417358,
        -4.393444061279297,
        -1.768876552581787
      ],
      "type": "VEC3",
      "byteOffset": 0
    },
    {
      "bufferView": 17,
      "componentType": 5126,
      "count": 686,
      "type": "VEC3",
      "byteOffset": 0
    },
    {
      "bufferView": 18,
      "componentType": 5126,
      "count": 686,
      "type": "VEC2",
      "byteOffset": 0
    },
    {
      "bufferView": 19,
      "componentType": 5123,
      "count": 1032,
      "type": "SCALAR",
      "byteOffset": 0
    },
    {
      "bufferView": 20,
      "componentType": 5126,
      "count": 20,
      "max": [
        0.20617307722568512,
        0.06054668873548508,
        0.007241564337164164
      ],
      "min": [
        -0.20617307722568512,
        -0.0996435210108757,
        -0.003009157720953226
      ],
      "type": "VEC3",
      "byteOffset": 0
    },
    {
      "bufferView": 21,
      "componentType": 5126,
      "count": 20,
      "type": "VEC3",
      "byteOffset": 0
    },
    {
      "bufferView": 22,
      "componentType": 5126,
      "count": 20,
      "type": "VEC2",
      "byteOffset": 0
    },
    {
      "bufferView": 23,
      "componentType": 5123,
      "count": 30,
      "type": "SCALAR",
      "byteOffset": 0
    },
    {
      "bufferView": 24,
      "componentType": 5126,
      "count": 481,
      "max": [
        1,
        0.9946146011352539,
        0.3963618278503418
      ],
      "min": [
        -1,
        -0.9946146011352539,
        -0.3963620066642761
      ],
      "type": "VEC3",
      "byteOffset": 0
    },
    {
      "bufferView": 25,
      "componentType": 5126,
      "count": 481,
      "type": "VEC3",
      "byteOffset": 0
    },
    {
      "bufferView": 26,
      "componentType": 5126,
      "count": 481,
      "type": "VEC2",
      "byteOffset": 0
    },
    {
      "bufferView": 27,
      "componentType": 5123,
      "count": 1434,
      "type": "SCALAR",
      "byteOffset": 0
    },
    {
      "bufferView": 28,
      "componentType": 5126,
      "count": 481,
      "max": [
        0.9999998807907104,
        0.9946146011352539,
        0.3963620066642761
      ],
      "min": [
        -0.9999998807907104,
        -0.9946146011352539,
        -0.3963618278503418
      ],
      "type": "VEC3",
      "byteOffset": 0
    },
    {
      "bufferView": 29,
      "componentType": 5126,
      "count": 481,
      "type": "VEC3",
      "byteOffset": 0
    },
    {
      "bufferView": 30,
      "componentType": 5126,
      "count": 481,
      "type": "VEC2",
      "byteOffset": 0
    },
    {
      "bufferView": 31,
      "componentType": 5123,
      "count": 1434,
      "type": "SCALAR",
      "byteOffset": 0
    },
    {
      "bufferView": 32,
      "componentType": 5126,
      "count": 481,
      "max": [
        1,
        0.9946146011352539,
        0.3963618278503418
      ],
      "min": [
        -1,
        -0.9946146011352539,
        -0.3963620066642761
      ],
      "type": "VEC3",
      "byteOffset": 0
    },
    {
      "bufferView": 33,
      "componentType": 5126,
      "count": 481,
      "type": "VEC3",
      "byteOffset": 0
    },
    {
      "bufferView": 34,
      "componentType": 5126,
      "count": 481,
      "type": "VEC2",
      "byteOffset": 0
    },
    {
      "bufferView": 35,
      "componentType": 5126,
      "count": 481,
      "max": [
        0.9999998807907104,
        0.9946146011352539,
        0.3963620066642761
      ],
      "min": [
        -0.9999998807907104,
        -0.9946146011352539,
        -0.3963618278503418
      ],
      "type": "VEC3",
      "byteOffset": 0
    },
    {
      "bufferView": 36,
      "componentType": 5126,
      "count": 481,
      "type": "VEC3",
      "byteOffset": 0
    },
    {
      "bufferView": 37,
      "componentType": 5126,
      "count": 481,
      "type": "VEC2",
      "byteOffset": 0
    },
    {
      "bufferView": 38,
      "componentType": 5126,
      "count": 18,
      "max": [
        0.8328425288200378,
        1.669926404953003,
        0.665921688079834
      ],
      "min": [
        -0.8328425884246826,
        1.0708999633789062,
        -1.7224246263504028
      ],
      "type": "VEC3",
      "byteOffset": 0
    },
    {
      "bufferView": 39,
      "componentType": 5126,
      "count": 18,
      "type": "VEC3",
      "byteOffset": 0
    },
    {
      "bufferView": 40,
      "componentType": 5126,
      "count": 18,
      "type": "VEC2",
      "byteOffset": 0
    },
    {
      "bufferView": 41,
      "componentType": 5123,
      "count": 30,
      "type": "SCALAR",
      "byteOffset": 0
    },
    {
      "bufferView": 42,
      "componentType": 5126,
      "count": 1282,
      "max": [
        0.9238482713699341,
        1.7160087823867798,
        1.6670520305633545
      ],
      "min": [
        -0.9238486886024475,
        0.20235931873321533,
        -1.7920552492141724
      ],
      "type": "VEC3",
      "byteOffset": 0
    },
    {
      "bufferView": 43,
      "componentType": 5126,
      "count": 1282,
      "type": "VEC3",
      "byteOffset": 0
    },
    {
      "bufferView": 44,
      "componentType": 5126,
      "count": 1282,
      "type": "VEC2",
      "byteOffset": 0
    },
    {
      "bufferView": 45,
      "componentType": 5123,
      "count": 1956,
      "type": "SCALAR",
      "byteOffset": 0
    }
  ],
  "bufferViews": [
    {
      "buffer": 0,
      "byteLength": 48,
      "byteOffset": 0,
      "byteStride": 12,
      "target": 34962
    },
    {
      "buffer": 0,
      "byteLength": 48,
      "byteOffset": 48,
      "byteStride": 12,
      "target": 34962
    },
    {
      "buffer": 0,
      "byteLength": 32,
      "byteOffset": 96,
      "byteStride": 8,
      "target": 34962
    },
    {
      "buffer": 0,
      "byteLength": 12,
      "byteOffset": 128,
      "target": 34963
    },
    {
      "buffer": 0,
      "byteLength": 3720,
      "byteOffset": 144,
      "byteStride": 12,
      "target": 34962
    },
    {
      "buffer": 0,
      "byteLength": 3720,
      "byteOffset": 3864,
      "byteStride": 12,
      "target": 34962
    },
    {
      "buffer": 0,
      "byteLength": 2480,
      "byteOffset": 7584,
      "byteStride": 8,
      "target": 34962
    },
    {
      "buffer": 0,
      "byteLength": 936,
      "byteOffset": 10064,
      "target": 34963
    },
    {
      "buffer": 0,
      "byteLength": 48,
      "byteOffset": 11000,
      "byteStride": 12,
      "target": 34962
    },
    {
      "buffer": 0,
      "byteLength": 48,
      "byteOffset": 11048,
      "byteStride": 12,
      "target": 34962
    },
    {
      "buffer": 0,
      "byteLength": 32,
      "byteOffset": 11096,
      "byteStride": 8,
      "target": 34962
    },
    {
      "buffer": 0,
      "byteLength": 12,
      "byteOffset": 11128,
      "target": 34963
    },
    {
      "buffer": 0,
      "byteLength": 3744,
      "byteOffset": 11144,
      "byteStride": 12,
      "target": 34962
    },
    {
      "buffer": 0,
      "byteLength": 3744,
      "byteOffset": 14888,
      "byteStride": 12,
      "target": 34962
    },
    {
      "buffer": 0,
      "byteLength": 2496,
      "byteOffset": 18632,
      "byteStride": 8,
      "target": 34962
    },
    {
      "buffer": 0,
      "byteLength": 936,
      "byteOffset": 21128,
      "target": 34963
    },
    {
      "buffer": 0,
      "byteLength": 8232,
      "byteOffset": 22064,
      "byteStride": 12,
      "target": 34962
    },
    {
      "buffer": 0,
      "byteLength": 8232,
      "byteOffset": 30296,
      "byteStride": 12,
      "target": 34962
    },
    {
      "buffer": 0,
      "byteLength": 5488,
      "byteOffset": 38528,
      "byteStride": 8,
      "target": 34962
    },
    {
      "buffer": 0,
      "byteLength": 2064,
      "byteOffset": 44016,
      "target": 34963
    },
    {
      "buffer": 0,
      "byteLength": 240,
      "byteOffset": 46080,
      "byteStride": 12,
      "target": 34962
    },
    {
      "buffer": 0,
      "byteLength": 240,
      "byteOffset": 46320,
      "byteStride": 12,
      "target": 34962
    },
    {
      "buffer": 0,
      "byteLength": 160,
      "byteOffset": 46560,
      "byteStride": 8,
      "target": 34962
    },
    {
      "buffer": 0,
      "byteLength": 60,
      "byteOffset": 46720,
      "target": 34963
    },
    {
      "buffer": 0,
      "byteLength": 5772,
      "byteOffset": 46784,
      "byteStride": 12,
      "target": 34962
    },
    {
      "buffer": 0,
      "byteLength": 5772,
      "byteOffset": 52560,
      "byteStride": 12,
      "target": 34962
    },
    {
      "buffer": 0,
      "byteLength": 3848,
      "byteOffset": 58336,
      "byteStride": 8,
      "target": 34962
    },
    {
      "buffer": 0,
      "byteLength": 2868,
      "byteOffset": 62184,
      "target": 34963
    },
    {
      "buffer": 0,
      "byteLength": 5772,
      "byteOffset": 65056,
      "byteStride": 12,
      "target": 34962
    },
    {
      "buffer": 0,
      "byteLength": 5772,
      "byteOffset": 70832,
      "byteStride": 12,
      "target": 34962
    },
    {
      "buffer": 0,
      "byteLength": 3848,
      "byteOffset": 76608,
      "byteStride": 8,
      "target": 34962
    },
    {
      "buffer": 0,
      "byteLength": 2868,
      "byteOffset": 80456,
      "target": 34963
    },
    {
      "buffer": 0,
      "byteLength": 5772,
      "byteOffset": 83328,
      "byteStride": 12,
      "target": 34962
    },
    {
      "buffer": 0,
      "byteLength": 5772,
      "byteOffset": 89104,
      "byteStride": 12,
      "target": 34962
    },
    {
      "buffer": 0,
      "byteLength": 3848,
      "byteOffset": 94880,
      "byteStride": 8,
      "target": 34962
    },
    {
      "buffer": 0,
      "byteLength": 5772,
      "byteOffset": 98728,
      "byteStride": 12,
      "target": 34962
    },
    {
      "buffer": 0,
      "byteLength": 5772,
      "byteOffset": 104504,
      "byteStride": 12,
      "target": 34962
    },
    {
      "buffer": 0,
      "byteLength": 3848,
      "byteOffset": 110280,
      "byteStride": 8,
      "target": 34962
    },
    {
      "buffer": 0,
      "byteLength": 216,
      "byteOffset": 114128,
      "byteStride": 12,
      "target": 34962
    },
    {
      "buffer": 0,
      "byteLength": 216,
      "byteOffset": 114344,
      "byteStride": 12,
      "target": 34962
    },
    {
      "buffer": 0,
      "byteLength": 144,
      "byteOffset": 114560,
      "byteStride": 8,
      "target": 34962
    },
    {
      "buffer": 0,
      "byteLength": 60,
      "byteOffset": 114704,
      "target": 34963
    },
    {
      "buffer": 0,
      "byteLength": 15384,
      "byteOffset": 114768,
      "byteStride": 12,
      "target": 34962
    },
    {
      "buffer": 0,
      "byteLength": 15384,
      "byteOffset": 130152,
      "byteStride": 12,
      "target": 34962
    },
    {
      "buffer": 0,
      "byteLength": 10256,
      "byteOffset": 145536,
      "byteStride": 8,
      "target": 34962
    },
    {
      "buffer": 0,
      "byteLength": 3912,
      "byteOffset": 155792,
      "target": 34963
    },
    {
      "buffer": 0,
      "byteOffset": 159704,
      "byteLength": 95679
    }
  ],
  "samplers": [
    {
      "magFilter": 9729,
      "minFilter": 9987,
      "wrapS": 10497,
      "wrapT": 10497
    }
  ],
  "buffers": [
    {
      "name": "car-processed",
      "byteLength": 255384,
      "uri": "data:application/octet-stream;base64,"
    }
  ]
}
