<?xml version="1.0" encoding="UTF-8"?>
<svg id="Layer_1" data-name="Layer 1" xmlns="http://www.w3.org/2000/svg" viewBox="0 0 1075.8 1275.59">
  <defs>
    <style>
      .cls-1 {
        fill: #e5ded2;
      }
    </style>
  </defs>
  <path class="cls-1" d="M839.78,825.63c-13.61.2-11.27,22.34-16.26,33.08-118.02,254.25-383.6,533.99-698.72,365.81-133.15-71.06-163.74-246.05-72.49-363.63,127.46-164.23,426.33-197.28,619.8-199.57,37.45-.44,93.2,26.02,128.64-3.29-92.16-32.98-193.82-39.66-289.96-60.86-146.98-32.41-446.06-98.06-466.48-281.99C5.47-34.69,546.38-70.68,762.11,96.61c61.56,47.73,56.93,106.94,151.79,97.74,82.47-8,147.28-94.74,105.25-171.38l19.5-.23c46.42,94.6,36.78,205.05,35.41,308.32-.24,18.42-8.25,35.5-8.44,53.91-3.06,289.68,2.95,579.69.32,869.3h-226.16v-428.64ZM743.54,344.94c-39.64-62.62-138.49-178.31-206.24-210.71-184.7-88.34-304.11,67.46-282.6,243.45,6.73,55.05,64.28,119.17,111.73,145.53,6.85,3.81,55.05,27.92,44.37,2.46-9.06-21.6-57.82-59.87-66.57-89.39-11.48-38.76,7.75-96.83,3.4-112.13-3.22-11.32-34.43-23.9-45.61-32.73-29.37-23.18,31.95,1.88,36.49,2.51,39.19,5.51,80.69,3.9,119.52,13.04,85.21,20.06,273.44,163.26,330.41,230.93,13.71,16.29,28.66,41.34,35.85,61.64,13.59,1.97,7.94-18,6.88-26.34-7.58-59.58-55.05-176.82-87.63-228.27ZM792.95,622.95c4.15-3.81-37.91-63.09-43.58-69.38-20.99-23.27-148.59-135.87-171.9-147.68-73.6-37.29-110.96,53.7-91.94,115.57,20.2,65.68,245.12,89.79,307.42,101.49ZM839.72,700.95c-135.68,26.06-473.91,78.41-542.42,209.91-47.99,92.13,29.31,149.89,117.16,156.62,125.83,9.64,297.91-57.64,361.4-169.36,15.1-26.56,79.66-178.86,63.85-197.18Z"/>
</svg>