<?xml version="1.0" encoding="UTF-8"?>
<svg id="Layer_1" data-name="Layer 1" xmlns="http://www.w3.org/2000/svg" viewBox="0 0 1062.47 1275.59">
  <defs>
    <style>
      .cls-1 {
        fill: #e5ded2;
      }
    </style>
  </defs>
  <path class="cls-1" d="M1060.34,1063.71c-288.14,349.97-856.2,248.77-1016.01-173.9C-111.49,477.71,157.46-36,631.35,1.99c155.5,12.47,194.69,61.96,294.25,161.56,6.37,6.37,6.87,11.03,18.72,8.19,23.38-43.87,29.84-91.69,44.35-137.61,4.13-13.07-3.26-20.32,17.53-16.78-14.2,148.29,141.42,390.3-11.59,501.88-86.31,62.95-172.05,35.07-258.51-8.06-1.99-8.26-.46-15.34,3.52-22.79,11.32-21.23,60.78-70.33,79.73-97.96,17.64-25.72,107.07-163.08,101.23-182.68-124.93-99.29-324.54-102.96-464.61-33.74-303.96,150.2-304.96,669.35-16.17,837.99,212.66,124.18,505.24,73.43,603.12-166.83,4.74-11.65-4.64-20.85,17.41-16.99v235.54Z"/>
</svg>