<svg width="575" height="124" viewBox="0 0 575 124" fill="none" xmlns="http://www.w3.org/2000/svg">
<path d="M94.8428 51.6311C96.567 49.953 97.9585 40.5154 95.9007 39.4708L93.0578 39.4771C94.821 37.459 96.1298 35.2228 98.5174 33.8405C103.898 30.7251 106.553 33.69 105.904 39.3869C105.201 45.5491 97.5669 54.164 91.0086 53.6463C87.5689 53.375 82.6711 50.3493 81.5306 46.9302L89.9002 20.5255C89.0957 20.3813 89.3313 20.6501 89.1278 21.1608C85.2882 30.7932 83.1996 41.8275 76.4653 50.1187C69.8063 58.319 58.5666 52.47 59.0129 42.3918C59.4242 33.1108 70.9962 24.7374 77.6236 19.4365C80.2218 17.3586 85.0452 14.5955 86.9178 11.938C88.4388 9.77952 88.9336 6.12108 89.9051 3.64306L91.1234 4.47904L91.9485 7.14362C93.7113 5.14342 95.118 0.534742 90.787 2.14936C87.0132 3.55623 79.5382 12.85 75.8529 16.0556C72.7044 18.7941 67.1843 23.1917 63.4011 19.0879C60.1596 15.5715 61.3084 9.69517 62.6065 5.54936C62.9536 4.44082 63.7524 1.51199 64.9743 1.88801C62.8142 4.65064 64.4931 9.22649 67.9588 9.70889C78.396 11.1615 87.5368 -2.1988 96.6916 1.72431C101.861 3.93973 100.758 9.40557 99.8435 13.8385C97.9531 22.9952 94.149 32.3413 91.8843 41.4777C91.2554 44.0147 89.9611 48.5099 90.8573 50.9335C91.5931 52.9233 93.4345 53.0023 94.8432 51.6316L94.8428 51.6311ZM92.1085 9.05905C91.5446 8.93897 91.3451 9.36485 90.9975 9.68603C89.479 11.0896 87.9872 12.8891 86.4354 14.3171C80.0174 20.2226 69.7426 27.6263 69.0845 37.25C68.6637 43.4047 72.7365 45.899 77.5997 42.027C80.4357 39.7692 83.3872 33.4524 84.5499 29.9323C85.797 26.1567 86.4526 20.9501 87.8437 17.3312C88.2488 16.2766 89.5008 15.5096 89.9878 14.7027C90.3501 14.1023 92.3166 9.27552 92.1085 9.05905Z" fill="#E5DED2"/>
<path d="M286.843 50.6311C288.567 48.953 289.958 39.5154 287.901 38.4708L285.058 38.4771C286.821 36.459 288.13 34.2228 290.517 32.8405C295.898 29.7251 298.553 32.69 297.904 38.3869C297.201 44.5491 289.567 53.164 283.009 52.6463C279.569 52.375 274.671 49.3493 273.531 45.9302L281.9 19.5255C281.096 19.3813 281.331 19.6501 281.128 20.1608C277.288 29.7932 275.2 40.8275 268.465 49.1187C261.806 57.319 250.567 51.47 251.013 41.3918C251.424 32.1108 262.996 23.7374 269.624 18.4365C272.222 16.3586 277.045 13.5955 278.918 10.938C280.439 8.77952 280.934 5.12108 281.905 2.64306L283.123 3.47904L283.948 6.14362C285.711 4.14342 287.118 -0.465258 282.787 1.14936C279.013 2.55623 271.538 11.85 267.853 15.0556C264.704 17.7941 259.184 22.1917 255.401 18.0879C252.16 14.5715 253.308 8.69517 254.606 4.54936C254.954 3.44082 255.752 0.511988 256.974 0.888012C254.814 3.65064 256.493 8.22649 259.959 8.70889C270.396 10.1615 279.537 -3.1988 288.692 0.724306C293.861 2.93973 292.758 8.40557 291.843 12.8385C289.953 21.9952 286.149 31.3413 283.884 40.4777C283.255 43.0147 281.961 47.5099 282.857 49.9335C283.593 51.9233 285.435 52.0023 286.843 50.6316L286.843 50.6311ZM284.108 8.05905C283.545 7.93897 283.345 8.36485 282.998 8.68603C281.479 10.0896 279.987 11.8891 278.435 13.3171C272.017 19.2226 261.743 26.6263 261.084 36.25C260.664 42.4047 264.736 44.899 269.6 41.027C272.436 38.7692 275.387 32.4524 276.55 28.9323C277.797 25.1567 278.453 19.9501 279.844 16.3312C280.249 15.2766 281.501 14.5096 281.988 13.7027C282.35 13.1023 284.317 8.27552 284.108 8.05905Z" fill="#E5DED2"/>
<g clip-path="url(#clip0_30_83)">
<path d="M302 52L302.046 0.167546L318.682 0.178553L334.863 44.5045V0.183852L344.694 0L344.954 0.392164L345 52H327.669L311.973 7.02715V52H302Z" fill="#E5DED2"/>
</g>
<g clip-path="url(#clip1_30_83)">
<path d="M490 54L490.04 0.17399L504.354 0.18542L518.278 46.2162V0.190923L526.737 0L526.961 0.407247L527 54H512.088L498.582 7.29742V54H490Z" fill="#E5DED2"/>
</g>
<g clip-path="url(#clip2_30_83)">
<path d="M568.277 43.0911C567.265 44.434 566.9 46.1984 565.906 47.7377C560.212 56.554 548.809 55.2455 542.13 48.8608C523.962 31.4935 538.774 -10.715 561.674 2.53156C563.465 3.56746 566.459 6.67176 567.821 7.22125C571.565 8.73128 574.28 4.5788 572.746 0.408544C573.454 -0.50882 574.382 3.57889 574.457 3.93237C575.142 7.14886 575.52 13.8155 573.443 16.3432C570.214 20.2697 566.223 9.82899 564.589 7.63823C560.208 1.7666 550.949 4.74771 546.995 10.2049C536.743 24.354 545.103 51.8249 561.58 44.381C563.166 43.6643 567.02 40.0791 566.723 37.8367C566.685 37.5514 566.034 37.5095 565.788 36.9871C565.505 36.3877 565.507 35.301 565.177 34.5199C564.791 33.6047 563.8 32.6132 563.415 31.5371H550.93C550.902 31.0774 550.929 30.6282 550.994 30.1723C551.107 29.3789 552.042 25.7946 552.312 25.0415C552.446 24.6677 552.64 24.3993 552.901 24.1559H574.454L574.848 24.6372V52.719C572.669 53.034 570.442 53.3197 568.277 52.719V43.0911H568.277ZM567.749 33.1407V31.5392H567.491V33.1407H567.749Z" fill="#E5DED2"/>
<path d="M517.807 -47.1606L514.693 -46.2941C498.986 -39.6516 500.654 -5.80985 516.963 -1.81189C526.909 0.626514 533.542 -9.35739 531.284 -20.8412C530.247 -21.4342 526.323 -22.3584 525.706 -21.1633C524.825 -19.4543 526.428 -16.8085 524.67 -13.8049C523.055 -11.0452 516.757 -6.82754 513.993 -6.86437C511.174 -6.90163 506.99 -10.1223 506.459 -13.6402C507.358 -13.7317 508.033 -12.8571 508.84 -12.5222C509.601 -12.206 510.543 -12.1967 511.19 -11.8466C512.378 -11.2044 513.054 -9.49158 514.573 -9.20668C515.286 -9.0729 516.164 -9.05301 516.882 -9.13428C519.364 -9.41453 524.889 -13.476 525.195 -16.7357C525.321 -18.067 524.275 -22.2835 525.464 -23.1716C525.843 -23.4557 530.218 -22.7385 531.005 -22.3465C529.732 -34.064 519.939 -42.907 510.422 -38.619C513.645 -44.1651 520.377 -47.4481 525.724 -45.0651C543.401 -37.1886 543.208 -1.27891 524.672 5.53676C505.949 12.4214 490.935 -9.83448 498.005 -31.5388C501.039 -40.8538 509.537 -47.6873 517.807 -47.1611L517.807 -47.1606Z" fill="#E5DED2"/>
</g>
<g clip-path="url(#clip3_30_83)">
<path d="M118.9 26.5342L129.368 5.77445C130.642 5.05398 131.429 1.60289 132.594 1.38309C133.887 1.13878 136.096 1.44334 137.559 1.39805C138.508 1.36855 140.913 0.537146 141.522 1.36897L141.612 2.14178L127.81 26.8653H142L130.221 53.2446C130.142 53.5496 129.507 54.0004 129.295 54.0004H120.88L130.78 32.8219H118.9V53.5039L118.405 54.0004H109.495L109 53.5039V1.38434H118.9V26.5338V26.5342Z" fill="#E5DED2"/>
</g>
<g clip-path="url(#clip4_30_83)">
<path d="M226.363 2.26271C226.929 1.69016 227.771 3.80918 227.874 4.06886C229.152 7.29434 230.377 18.1458 224.941 17.7519C221.476 17.5005 220.518 10.7591 218.599 9.20853C218.212 8.89607 216.08 8.62891 215.428 8.57905C212.083 8.32352 207.452 8.00858 204.326 9.19108C197.941 11.6063 200.334 18.6178 205.277 21.2221C206.772 22.0095 213.649 24.4522 215.111 24.3849C216.763 24.3084 218.65 22.4271 220.01 21.975C220.48 21.8188 220.797 21.6904 221.146 22.152C221.703 23.8929 219.143 24.8498 219.858 26.2621C220.109 26.7577 223.167 28.4143 223.976 29.1111C231.29 35.4071 230.544 46.0296 222.218 51.0234C213.936 55.9911 196.801 54.991 191.379 46.1264C187.186 39.2712 193.254 34.5574 200.141 35.4989C201.318 35.6597 205.823 37.487 206.566 38.2536C206.778 38.473 206.909 38.8553 206.512 38.8831C201.368 41.5788 203.165 47.5216 207.563 50.2074C217.282 56.1436 226.624 46.0437 217.815 37.4625C210.948 30.771 191.136 25.3334 190.232 15.0603C189.163 2.91088 202.141 -1.32757 212.006 2.20039C216.104 3.66625 219.299 9.2239 223.314 8.87738C226.423 8.60897 227.844 4.80429 226.363 2.26313V2.26271Z" fill="#E5DED2"/>
</g>
<path d="M182.687 1V8.30196L182.216 8.81147H155.093V24.0947H182.059V31.5665H155.564L155.093 32.076V46.8498L183 47.1885V55H146.157L146 1H182.687Z" fill="#E5DED2"/>
<path d="M434.687 70V77.302L434.216 77.8115H407.093V93.0947H434.059V100.567H407.564L407.093 101.076V115.85L435 116.189V124H398.157L398 70H434.687Z" fill="#E5DED2"/>
<path d="M18.7804 1L27.4969 49.9797L36.2196 1H55V53.978H44.6038V12.9949L36.8557 53.9422L18.2655 54L10.061 11.9956V53.4781L9.55779 53.978H0V1H18.7804Z" fill="#E5DED2"/>
<g clip-path="url(#clip5_30_83)">
<path d="M471 0.224787V54H462.6V31.3398H444.96V54H436V0.224787H444.96V23.2232L461.903 23.2342C462.138 23.2728 462.6 22.8846 462.6 22.7161V0.224787C465.438 0.16933 468.172 -0.251887 471 0.224787Z" fill="#E5DED2"/>
<path d="M410.111 -31.6124L418.505 11.952C421.126 11.0808 421.414 11.3453 422.214 8.16315C424.59 -1.28693 425.757 -11.5358 427.958 -21.0761C426.864 -24.4323 427.958 -26.3161 429.042 -29.1804C429.699 -30.9199 428.84 -31.8711 431.096 -31.4626C433.733 -30.985 436.78 -28.9099 439.445 -28.2021L427.97 22.377L411.539 22.3876L400.926 -27.366L410.111 -31.6124Z" fill="#E5DED2"/>
</g>
<path d="M484 0.149115V54H476V0.149115C478.709 0.154618 481.294 -0.189128 484 0.149115Z" fill="#E5DED2"/>
<path d="M304 70.1491V124H296V70.1491C298.709 70.1546 301.294 69.8109 304 70.1491Z" fill="#E5DED2"/>
<path d="M433 0V7.70087L421.318 8.03573V52.3999L420.937 52.9019H412.937C412.847 52.9019 412.95 54.4725 411.581 53.857C411.107 53.6436 410.552 52.0862 410.634 51.4059C410.761 50.3539 413.173 49.0733 413.445 47.7123V8.03573L401 11.7187V0H433Z" fill="#E5DED2"/>
<path d="M363.113 5.41421C363.929 6.70496 368.114 14.8491 368.6 15.1484C369.466 15.6826 371.468 14.9638 372.335 14.4393C378.145 10.9201 377.147 -0.253832 384.654 0.00440273C388.507 0.136907 392.993 1.82009 397 1.67362L386.657 32.8049C384.965 35.0198 384.477 38.6029 383.388 41.3143C380.661 48.1093 374.441 56.5472 366.45 53.271C363.456 52.0434 357.852 44.0237 354.817 48.1385C353.765 49.5656 354.367 50.6722 354.307 52.2216C352.398 48.9378 351.601 41.0189 354.447 38.1651C357.439 35.165 359.525 39.0097 361.191 41.3173L361.643 41.311C361.746 40.0342 363.057 40.005 363.876 40.7932C365.212 43.246 362.725 46.4545 365.109 48.0797C368.111 50.1269 371.478 45.4368 372.765 42.978C374.71 39.2637 375.884 34.7624 377.605 30.91C375.733 31.0307 374.465 32.346 372.449 32.4201C371.297 32.4624 369.103 32.0564 368.205 31.2639L352 4.85498C352.081 4.41852 358.622 0.111083 359.052 0.0645164C359.816 -0.0184574 361.77 3.89401 362.335 4.77032C362.545 5.09671 362.998 5.23175 363.113 5.41378L363.113 5.41421ZM386.978 1.354C378.317 -1.81171 378.414 9.53665 376.829 15.5535C376.116 18.262 373.851 22.3578 374.825 24.9334C375.069 25.5815 377.365 29.4161 377.764 29.4195C381.193 21.4891 383.139 12.9229 386.008 4.77624C386.177 4.29618 386.582 4.30846 386.728 3.86226C386.986 3.07401 387.046 2.18246 386.978 1.35442V1.354Z" fill="#E5DED2"/>
<g clip-path="url(#clip6_30_83)">
<path d="M143.747 70C144.212 70.0948 146.737 71.7196 147.149 72.1467C149.543 74.6224 149.549 79.4869 147.546 82.2589C141.761 89.6202 134.95 96.2759 129.161 103.591C128.824 104.017 127.22 106.094 127.188 106.341C127.114 106.903 128.606 107.77 127.132 108.666L116.737 106.788V115.056C118.17 115.808 120.789 116.284 120.768 118.449C120.754 119.762 117.296 119.422 116.447 119.997L116.401 124H106V70.5063L106.503 70H143.747ZM135.694 78.1001H116.737V105.775C122.321 100.272 126.589 93.5708 131.499 87.4773C131.881 87.0032 132.558 86.7754 133.019 86.2086C133.992 85.0139 136.91 81.3381 136.897 79.9479C136.891 79.3557 136.173 78.233 135.695 78.1001H135.694Z" fill="#E5DED2"/>
</g>
<g clip-path="url(#clip7_30_83)">
<path d="M237.038 160.28C235.802 161.623 235.355 163.387 234.14 164.927C227.184 173.743 213.252 172.434 205.091 166.05C182.892 148.682 200.991 106.474 228.971 119.72C231.159 120.756 234.817 123.86 236.481 124.41C241.056 125.92 244.372 121.767 242.499 117.597C243.364 116.68 244.497 120.767 244.589 121.121C245.426 124.337 245.888 131.004 243.35 133.532C239.405 137.458 234.528 127.017 232.532 124.827C227.18 118.955 215.867 121.936 211.035 127.393C198.509 141.542 208.723 169.013 228.855 161.57C230.793 160.853 235.502 157.268 235.139 155.025C235.093 154.74 234.298 154.698 233.997 154.176C233.651 153.576 233.653 152.489 233.251 151.708C232.779 150.793 231.568 149.802 231.097 148.726H215.843C215.809 148.266 215.842 147.817 215.921 147.361C216.059 146.567 217.202 142.983 217.532 142.23C217.696 141.856 217.932 141.588 218.252 141.344H244.585L245.067 141.826V169.908C242.404 170.222 239.683 170.508 237.039 169.908V160.28L237.038 160.28ZM236.392 150.33V148.728H236.078V150.33H236.392Z" fill="#E5DED2"/>
<path d="M175.372 70.0284L171.567 70.8949C152.376 77.5375 154.414 111.379 174.341 115.378C186.493 117.816 194.597 107.832 191.838 96.3479C190.571 95.7548 185.777 94.8306 185.024 96.0257C183.946 97.7347 185.906 100.381 183.758 103.384C181.784 106.144 174.089 110.361 170.712 110.325C167.268 110.287 162.155 107.067 161.506 103.549C162.605 103.457 163.429 104.332 164.416 104.667C165.346 104.983 166.497 104.992 167.288 105.342C168.738 105.985 169.565 107.697 171.42 107.982C172.292 108.116 173.365 108.136 174.242 108.055C177.275 107.774 184.025 103.713 184.399 100.453C184.553 99.122 183.275 94.9056 184.727 94.0174C185.191 93.7334 190.536 94.4505 191.498 94.8425C189.942 83.1251 177.977 74.282 166.349 78.57C170.287 73.0239 178.512 69.7414 185.046 72.1243C206.643 80.0004 206.409 115.911 183.761 122.726C160.883 129.611 142.539 107.355 151.176 85.6507C154.884 76.3356 165.267 69.5022 175.372 70.0284Z" fill="#E5DED2"/>
</g>
<g clip-path="url(#clip8_30_83)">
<path d="M242.295 71.2865C242.876 70.7032 243.74 72.8622 243.845 73.1268C245.156 76.4131 246.412 87.4693 240.837 87.068C237.283 86.8119 236.3 79.9433 234.332 78.3634C233.935 78.0451 231.749 77.7729 231.08 77.7221C227.649 77.4617 222.899 77.1408 219.693 78.3456C213.144 80.8065 215.599 87.9502 220.669 90.6037C222.202 91.4059 229.256 93.8947 230.755 93.8261C232.449 93.7482 234.385 91.8313 235.78 91.3707C236.262 91.2116 236.586 91.0808 236.944 91.5511C237.516 93.3249 234.891 94.2998 235.623 95.7387C235.881 96.2437 239.017 97.9316 239.848 98.6415C247.348 105.056 246.583 115.879 238.044 120.967C229.55 126.029 211.976 125.01 206.414 115.978C202.114 108.993 208.338 104.191 215.401 105.15C216.608 105.314 221.228 107.175 221.99 107.957C222.208 108.18 222.343 108.57 221.936 108.598C216.66 111.344 218.502 117.399 223.013 120.136C232.982 126.184 242.563 115.894 233.529 107.151C226.485 100.333 206.165 94.7926 205.238 84.3256C204.141 71.9469 217.453 67.6285 227.57 71.223C231.774 72.7166 235.05 78.3791 239.168 78.026C242.357 77.7525 243.815 73.8761 242.295 71.287V71.2865Z" fill="#E5DED2"/>
</g>
<g clip-path="url(#clip9_30_83)">
<path d="M289.015 70.7396C289.674 70.069 290.893 73.3443 291.007 73.6893C291.948 76.5358 293.084 86.2822 289.892 87.7948C285.827 89.7214 282.707 82.3351 280.761 79.8709C277.269 75.4496 269.943 72.0629 264.899 76.0134C259.074 80.5744 262.731 89.1541 268.383 92.048C271.289 93.5356 274.871 93.6749 278.065 93.4713C279.672 93.3693 283.72 91.7653 284.251 94.6096C285.131 99.3192 278.162 97.1539 275.846 97.0036C270.771 96.6747 266.561 98.0602 265.064 103.405C261.897 114.716 279.089 125.739 288.042 118.918C296.3 112.626 283.643 105.423 278.268 110.327L277.757 113.011C273.595 109.778 268.806 100.185 277.44 99.5686C289.863 98.6813 298.604 115.176 285.321 121.615C278.743 124.804 268.68 124.687 261.968 121.905C249.293 116.653 247.778 102.607 261.747 97.813C267.07 95.9863 271.2 96.612 276.45 96.0003C276.946 95.9423 278.186 95.8894 277.91 95.0795C270.263 95.1363 260.538 95.4804 254.911 89.3158C250.047 83.9869 249.241 77.7631 255.239 72.9858C261.558 67.9527 271.259 70.0711 277.812 73.5594C279.664 74.5449 282.8 77.4159 284.269 77.9273C288.088 79.2574 291.424 73.8286 289.015 70.7391V70.7396Z" fill="#E5DED2"/>
</g>
<g clip-path="url(#clip10_30_83)">
<path d="M320.085 88.984L322.126 81.0215C325.937 71.5033 339.239 66.3043 347.71 73.073C356.288 79.9263 349.457 90.6515 341.776 94.6283L335.052 98.1835C339.349 97.968 343.714 98.636 347.387 101.007C355.163 106.027 354.515 114.748 347.568 120.199C344.575 122.548 339.618 123.596 335.878 123.836C327.396 124.381 318.48 123.383 310 123.494V71.4004L310.488 70.9072H319.272C319.379 70.9072 319.765 71.3424 320.085 71.2357V88.9836L320.085 88.984ZM339.493 74.6372C337.324 72.6713 333.911 73.5247 331.688 74.9056C329.52 76.2531 324.889 81.8356 323.601 84.1546C321.32 88.2631 320.277 93.8608 320.089 98.5149C326.652 95.0783 340.753 88.0836 341.238 79.605C341.332 77.9557 340.719 75.7476 339.494 74.6368L339.493 74.6372ZM320.085 121.851C328.767 121.303 343.008 117.84 342.222 106.553C341.866 101.446 337.016 98.3934 332.328 100.201C326.951 102.276 320.086 111.179 320.086 117.085V121.85L320.085 121.851Z" fill="#E5DED2"/>
</g>
<g clip-path="url(#clip11_30_83)">
<path d="M372.417 116.256H393.417C394.749 118.493 393.35 121.526 393.585 124H362V70.4627C364.905 70.3188 368.37 69.7693 371.257 70.1088C371.747 70.1664 372.121 70.1507 372.416 70.6312V116.256H372.417Z" fill="#E5DED2"/>
</g>
<defs>
<clipPath id="clip0_30_83">
<rect width="43" height="52" fill="white" transform="translate(302)"/>
</clipPath>
<clipPath id="clip1_30_83">
<rect width="37" height="54" fill="white" transform="translate(490)"/>
</clipPath>
<clipPath id="clip2_30_83">
<rect width="41" height="54" fill="white" transform="translate(534)"/>
</clipPath>
<clipPath id="clip3_30_83">
<rect width="33" height="53" fill="white" transform="translate(109 1)"/>
</clipPath>
<clipPath id="clip4_30_83">
<rect width="39" height="53" fill="white" transform="translate(190 1)"/>
</clipPath>
<clipPath id="clip5_30_83">
<rect width="35" height="54" fill="white" transform="translate(436)"/>
</clipPath>
<clipPath id="clip6_30_83">
<rect width="43" height="54" fill="white" transform="translate(106 70)"/>
</clipPath>
<clipPath id="clip7_30_83">
<rect width="52" height="54" fill="white" transform="translate(149 70)"/>
</clipPath>
<clipPath id="clip8_30_83">
<rect width="40" height="54" fill="white" transform="translate(205 70)"/>
</clipPath>
<clipPath id="clip9_30_83">
<rect width="41" height="54" fill="white" transform="translate(251 70)"/>
</clipPath>
<clipPath id="clip10_30_83">
<rect width="43" height="54" fill="white" transform="translate(310 70)"/>
</clipPath>
<clipPath id="clip11_30_83">
<rect width="32" height="54" fill="white" transform="translate(362 70)"/>
</clipPath>
</defs>
</svg>
