<svg width="473" height="135" viewBox="0 0 473 135" fill="none" xmlns="http://www.w3.org/2000/svg">
<path d="M316 0.149115V54H307V0.149115C310.047 0.154618 312.956 -0.189128 316 0.149115Z" fill="#E5DED2"/>
<path d="M382 0.149115V54H372V0.149115C375.386 0.154618 378.618 -0.189128 382 0.149115Z" fill="#E5DED2"/>
<path d="M297 0V7.70087L282.762 8.03573V52.3999L282.298 52.9019H272.548C272.439 52.9019 272.564 54.4725 270.896 53.857C270.318 53.6436 269.641 52.0862 269.742 51.4059C269.896 50.3539 272.836 49.0733 273.167 47.7123V8.03573L258 11.7187V0H297Z" fill="#E5DED2"/>
<path d="M422 0V7.70087L408.492 8.03573V52.3999L408.052 52.9019H398.802C398.698 52.9019 398.817 54.4725 397.234 53.857C396.686 53.6436 396.044 52.0862 396.139 51.4059C396.286 50.3539 399.075 49.0733 399.389 47.7123V8.03573L385 11.7187V0H422Z" fill="#E5DED2"/>
<path d="M243.785 34.9514C243.254 34.9599 243.345 35.8972 243.151 36.3518C238.543 47.115 228.175 58.9572 215.872 51.8376C210.674 48.8295 209.48 41.4216 213.042 36.4441C218.018 29.4918 229.686 28.0927 237.24 27.9957C238.702 27.9771 240.878 29.0972 242.262 27.8564C238.664 26.4603 234.695 26.1775 230.942 25.2801C225.203 23.908 213.527 21.1289 212.73 13.3426C211.214 -1.46846 232.331 -2.99202 240.753 4.08986C243.156 6.11041 242.976 8.61695 246.679 8.22748C249.899 7.88882 252.429 4.21686 250.788 0.972459L251.549 0.962723C253.362 4.96742 252.985 9.6431 252.932 14.0148C252.922 14.7946 252.61 15.5176 252.602 16.297C252.483 28.56 252.717 40.837 252.615 53.0971H243.785V34.9514ZM240.028 14.6024C238.481 11.9515 234.621 7.05401 231.977 5.68243C224.766 1.94273 220.104 8.53821 220.944 15.9884C221.206 18.3188 223.453 21.0332 225.306 22.1491C225.573 22.3104 227.455 23.331 227.038 22.2532C226.684 21.3389 224.781 19.7188 224.439 18.4691C223.991 16.8283 224.742 14.37 224.572 13.7223C224.446 13.2431 223.228 12.7105 222.791 12.3367C221.645 11.3555 224.038 12.4163 224.216 12.443C225.746 12.6763 227.366 12.6081 228.882 12.995C232.208 13.8442 239.557 19.9063 241.781 22.771C242.316 23.4606 242.9 24.521 243.181 25.3804C243.711 25.4638 243.491 24.6184 243.449 24.2653C243.153 21.7431 241.3 16.78 240.028 14.602V14.6024ZM241.957 26.3714C242.119 26.2101 240.477 23.7006 240.256 23.4343C239.436 22.4492 234.455 17.6826 233.545 17.1826C230.671 15.604 229.213 19.4559 229.955 22.075C230.744 24.8555 239.525 25.8761 241.957 26.3714ZM243.783 29.6734C238.486 30.7766 225.282 32.9927 222.607 38.5595C220.733 42.4596 223.751 44.9048 227.181 45.1897C232.093 45.5978 238.811 42.7496 241.29 38.0202C241.879 36.8958 244.4 30.4485 243.783 29.6729L243.783 29.6734Z" fill="#E5DED2"/>
<path d="M140.462 27.5733C141.418 32.5691 145.459 37.1605 149.065 40.3414C153.554 44.3 160.955 49.3063 166.559 45.0612C166.77 44.9892 166.785 45.3804 166.711 45.559C166.569 45.8964 162.725 49.957 162.175 50.432C151.924 59.2856 142.535 50.0421 137.205 40.3245C135.773 37.7117 133.929 35.0697 135.399 32.0458C136.55 29.676 142.535 20.4939 144.216 18.6673C146.432 16.2602 149.838 14.1147 152.318 11.59C152.975 10.9215 153.973 10.4737 154.523 9.57789L154.056 8.74308H133.43C133.066 8.74308 131.044 11.4202 131.397 12.2716C131.785 17.6436 132.72 23.4026 132.975 28.7366C133.356 36.7368 132.664 45.0942 132.962 53.1295H124.68C124.234 52.8344 124.249 52.4589 124.195 51.9695C123.641 46.887 124.434 41.2393 124.536 36.1619C124.646 30.7428 123.625 21.6441 126.263 17.1712C127.88 14.4289 130.641 11.562 132.336 8.74604L125.147 8.40822L124.836 0H160.619C162.623 0 165.582 2.94893 166.335 4.94621C168.397 10.4157 165.374 16.0007 161.252 19.1753C159.679 20.3864 147.081 27.5733 145.93 27.5733H140.461H140.462Z" fill="#E5DED2"/>
<path d="M208.687 0V7.30196L208.216 7.81147H181.093V23.0947H208.059V30.5665H181.564L181.093 31.076V45.8498L209 46.1885V54H172.157L172 0H208.687Z" fill="#E5DED2"/>
<path d="M118.916 45.0303C107.526 59.8457 85.0699 55.5615 78.7525 37.6685C72.5929 20.223 83.2246 -1.52402 101.958 0.0842222C108.105 0.612118 109.654 2.70719 113.59 6.92358C113.841 7.19325 113.861 7.39052 114.33 7.27029C115.254 5.41313 115.509 3.38876 116.083 1.44481C116.246 0.891518 115.954 0.584601 116.776 0.734461C116.214 7.01206 122.366 17.2571 116.318 21.9807C112.906 24.6456 109.516 23.4653 106.099 21.6395C106.02 21.2898 106.08 20.9901 106.238 20.6747C106.685 19.776 108.64 17.6974 109.39 16.5277C110.087 15.4389 113.622 9.62402 113.391 8.79429C108.453 4.59102 100.562 4.43566 95.0249 7.36597C83.0092 13.7244 82.9696 35.7017 94.3857 42.8408C102.792 48.0978 114.358 45.9493 118.227 35.7784C118.415 35.2852 118.044 34.8957 118.916 35.0591V45.0303H118.916Z" fill="#E5DED2"/>
<path d="M331.492 0L341.08 43.5644C344.074 42.6932 344.403 42.9578 345.317 39.7756C348.031 30.3255 349.364 20.0766 351.878 10.5363C350.629 7.18016 351.879 5.29633 353.116 2.43205C353.867 0.692574 352.885 -0.258657 355.463 0.14986C358.475 0.62738 361.955 2.70256 365 3.41037L351.892 53.9894L333.123 54L321 4.24646L331.492 0Z" fill="#E5DED2"/>
<path d="M439.113 5.41421C439.929 6.70496 444.114 14.8491 444.6 15.1484C445.466 15.6826 447.468 14.9638 448.335 14.4393C454.145 10.9201 453.147 -0.253832 460.654 0.00440273C464.507 0.136907 468.993 1.82009 473 1.67362L462.657 32.8049C460.965 35.0198 460.477 38.6029 459.388 41.3143C456.661 48.1093 450.441 56.5472 442.45 53.271C439.456 52.0434 433.852 44.0237 430.817 48.1385C429.765 49.5656 430.367 50.6722 430.307 52.2216C428.398 48.9378 427.601 41.0189 430.447 38.1651C433.439 35.165 435.525 39.0097 437.191 41.3173L437.643 41.311C437.746 40.0342 439.057 40.005 439.876 40.7932C441.212 43.246 438.725 46.4545 441.109 48.0797C444.111 50.1269 447.478 45.4368 448.765 42.978C450.71 39.2637 451.884 34.7624 453.605 30.91C451.733 31.0307 450.465 32.346 448.449 32.4201C447.297 32.4624 445.103 32.0564 444.205 31.2639L428 4.85498C428.081 4.41852 434.622 0.111083 435.052 0.0645164C435.816 -0.0184574 437.77 3.89401 438.335 4.77032C438.545 5.09671 438.998 5.23175 439.113 5.41378L439.113 5.41421ZM462.978 1.354C454.317 -1.81171 454.414 9.53665 452.829 15.5535C452.116 18.262 449.851 22.3578 450.825 24.9334C451.069 25.5815 453.365 29.4161 453.764 29.4195C457.193 21.4891 459.139 12.9229 462.008 4.77624C462.177 4.29618 462.582 4.30846 462.728 3.86226C462.986 3.07401 463.046 2.18246 462.978 1.35442V1.354Z" fill="#E5DED2"/>
</svg>
