<svg width="900" height="270" viewBox="0 0 900 270" fill="none" xmlns="http://www.w3.org/2000/svg">
<path d="M747.92 129.44V266.454H766.38V129.44H747.92ZM803.301 129.44L766.38 266.454H785.58L822.5 129.44L859.421 266.454H878.62L841.699 129.44H803.301ZM878.62 129.44V266.454H897.08V129.44H878.62ZM898.5 267.96H858.35L822.5 134.921L786.65 267.96H746.5V127.935H767.801V255.703L802.23 127.935H821.429L822.5 123.96L823.572 127.935H842.77L877.199 255.703V127.935H898.5V267.96Z" fill="black"/>
<path d="M724.055 197.46C724.055 177.229 717.481 160.369 704.333 146.882C691.514 133.477 675.541 126.671 656.413 126.461L655.5 126.456C635.966 126.456 619.626 133.265 606.479 146.882L605.873 147.517C593.254 160.897 586.945 177.545 586.945 197.46L586.949 198.406C587.15 218.219 593.66 234.828 606.479 248.232C619.626 261.719 635.966 268.463 655.5 268.464C675.033 268.464 691.311 261.72 704.333 248.232C717.275 234.828 723.847 218.219 724.05 198.406L724.055 197.46ZM703.828 197.46C703.828 183.626 699.491 172.056 690.828 162.655L689.977 161.752C680.747 152.192 669.287 147.406 655.5 147.406C641.712 147.406 630.253 152.192 621.023 161.752C611.793 171.312 607.172 183.18 607.172 197.46L607.186 198.792C607.457 212.038 611.788 223.167 620.171 232.265L621.023 233.168C630.253 242.728 641.712 247.514 655.5 247.514V249.01C641.572 249.01 629.888 244.235 620.449 234.685L620.002 234.227C610.783 224.679 606.029 212.878 605.741 198.827L605.727 197.46C605.727 183.034 610.338 170.934 619.559 161.158L620.002 160.693C629.518 150.837 641.351 145.91 655.5 145.909L656.819 145.924C670.386 146.222 681.779 151.145 690.998 160.693C700.515 170.549 705.273 182.805 705.273 197.46L705.259 198.827C704.971 212.878 700.217 224.679 690.998 234.227L690.551 234.685C681.112 244.235 669.428 249.01 655.5 249.01V247.514C669.287 247.514 680.747 242.728 689.977 233.168C699.207 223.608 703.828 211.74 703.828 197.46ZM725.494 198.423C725.288 218.606 718.578 235.595 705.355 249.291C692.044 263.077 675.39 269.96 655.5 269.96C635.92 269.96 619.419 263.291 606.094 249.937L605.462 249.296L605.457 249.291L605.452 249.285C592.146 235.371 585.5 218.061 585.5 197.46C585.5 176.859 592.146 159.61 605.457 145.824C618.89 131.911 635.605 124.96 655.5 124.96C675.395 124.96 692.051 131.911 705.361 145.829H705.36C718.791 159.612 725.5 176.859 725.5 197.46L725.494 198.423Z" fill="black"/>
<path d="M523.513 129.46V265.96H593.518V246.46H543.013V129.46H523.513ZM544.513 244.96H595.018V267.46H522.013V127.96H544.513V244.96Z" fill="black"/>
<path d="M412.555 129.465V266.455H439.265V207.745H508.445V188.175H439.265V149.035H508.445V129.465H412.555ZM510.5 150.541H441.32V186.67H510.5V209.25H441.32V267.96H410.5V127.96H510.5V150.541Z" fill="black"/>
<path d="M226.781 129.465V266.455H333.219V246.885H256.429V207.745H333.219V188.175H256.429V149.035H333.219V129.465H226.781ZM335.5 150.541H258.71V186.67H335.5V209.25H258.71V245.379H335.5V267.96H224.5V127.96H335.5V150.541Z" fill="black"/>
<path d="M101.019 129.46H81.5186V265.96H101.019V207.46H186.818V265.96H206.318V129.46H186.818V187.96H101.019V129.46ZM207.818 267.46H185.318V208.96H102.519V267.46H80.0186V127.96H102.519V186.46H185.318V127.96H207.818V267.46Z" fill="black"/>
<path d="M1.5 129.46V148.96H26.8496V265.96H46.3496V148.96H71.7002V129.46H1.5ZM73.2002 150.46H47.8496V267.46H25.3496V150.46H0V127.96H73.2002V150.46Z" fill="black"/>
<path d="M809.355 5.45996H792.855V120.96H809.355V71.46H881.955V120.96H898.455V5.45996H881.955V54.96H809.355V5.45996ZM899.955 122.46H880.455V72.96H810.855V122.46H791.355V3.95996H810.855V53.46H880.455V3.95996H899.955V122.46Z" fill="black"/>
<path d="M725.147 5.45996V21.96H746.598V120.96H763.098V21.96H784.548V5.45996H725.147ZM786.048 23.46H764.598V122.46H745.098V23.46H723.647V3.95996H786.048V23.46Z" fill="black"/>
<path d="M700.365 5.45996V120.96H716.865V5.45996H700.365ZM718.365 122.46H698.865V3.95996H718.365V122.46Z" fill="black"/>
<path d="M550.512 5.45996V120.96H567.012V5.45996H550.512ZM600.012 5.45996L567.012 120.96H584.172L617.172 5.45996L650.172 120.96H667.332L634.332 5.45996H600.012ZM667.332 5.45996V120.96H683.832V5.45996H667.332ZM685.332 122.46H649.04L617.172 10.9199L585.303 122.46H549.012V3.95996H568.512V110.249L598.88 3.95996H616.04L617.172 0L618.304 3.95996H635.463L665.832 110.249V3.95996H685.332V122.46Z" fill="black"/>
<path d="M359.408 5.45996V120.96H375.908V5.45996H359.408ZM408.908 5.45996L375.908 120.96H393.068L426.068 5.45996L459.068 120.96H476.229L443.229 5.45996H408.908ZM476.229 5.45996V120.96H492.729V5.45996H476.229ZM494.229 122.46H457.937L426.068 10.9199L394.199 122.46H357.908V3.95996H377.408V110.249L407.776 3.95996H424.937L426.068 0L427.2 3.95996H444.359L474.729 110.249V3.95996H494.229V122.46Z" fill="black"/>
<path d="M348.722 63.21C348.722 46.05 342.946 31.7496 331.396 20.3096C320.135 8.94022 306.103 3.16683 289.299 2.98926L288.497 2.98535C271.337 2.98535 256.982 8.75962 245.432 20.3096C233.992 31.7496 228.271 46.05 228.271 63.21L228.276 64.0127C228.452 80.8181 234.17 94.906 245.432 106.275C256.801 117.537 270.889 123.255 287.694 123.431L288.497 123.435C305.389 123.435 319.509 117.892 330.858 106.807L331.396 106.275C342.766 94.906 348.54 80.8181 348.718 64.0127L348.722 63.21ZM330.722 63.21C330.722 51.5319 326.932 41.7764 319.365 33.8477L318.621 33.0859C310.558 25.023 300.552 20.9854 288.497 20.9854C276.442 20.9854 266.435 25.0229 258.372 33.0859C250.309 41.1489 246.271 51.1553 246.271 63.21L246.284 64.334C246.529 75.8881 250.561 85.523 258.372 93.334C266.435 101.397 276.442 105.435 288.497 105.435V106.935L287.338 106.923C275.419 106.67 265.41 102.493 257.312 94.3945C249.213 86.2958 245.037 76.2874 244.784 64.3691L244.771 63.21C244.771 51.1684 248.694 41.0364 256.54 32.8145L257.312 32.0254C265.672 23.6654 276.067 19.4854 288.497 19.4854L289.656 19.4971C301.575 19.7502 311.583 23.9266 319.682 32.0254C328.042 40.3854 332.222 50.78 332.222 63.21L332.21 64.3691C331.957 76.2875 327.78 86.2958 319.682 94.3945C311.322 102.754 300.927 106.935 288.497 106.935V105.435C300.552 105.435 310.558 101.397 318.621 93.334C326.684 85.271 330.722 75.2648 330.722 63.21ZM350.218 64.0303C350.036 81.2056 344.12 95.6744 332.458 107.336C320.718 119.076 306.028 124.935 288.497 124.935C271.24 124.935 256.685 119.258 244.934 107.887L244.376 107.341L244.371 107.336L244.366 107.33C232.631 95.4824 226.771 80.7408 226.771 63.21C226.771 45.6789 232.631 30.9887 244.371 19.249C256.218 7.40233 270.962 1.48535 288.497 1.48535C306.032 1.48539 320.724 7.40248 332.463 19.2539H332.462C344.307 30.991 350.222 45.6791 350.222 63.21L350.218 64.0303Z" fill="black"/>
<path d="M119.593 3.95996H185.277V5.45996H121.093V120.96H137.593V71.46H174.883L203.593 120.96H222.567L205.408 90.9297C202.108 85.0997 197.158 79.7648 190.558 74.9248C183.958 70.0849 177.358 66.8945 170.758 65.3545V64.8604C176.223 65.9947 181.399 66.597 186.284 66.668L187.258 66.6748C200.348 66.6748 208.983 63.5395 213.163 57.2695C217.013 51.6596 218.938 45.3898 218.938 38.46C218.938 29.5086 215.893 21.8991 209.802 15.6318L209.203 15.0303C202.916 8.84962 195.235 5.66284 186.16 5.46973L185.277 5.45996V3.95996C195.113 3.95996 203.471 7.29255 210.254 13.96C217.036 20.6268 220.438 28.8246 220.438 38.46C220.438 45.687 218.424 52.2544 214.399 58.1191C209.782 65.0277 200.471 68.1748 187.258 68.1748C185.603 68.1748 183.918 68.1141 182.201 67.9932C185.081 69.4483 187.952 71.2042 190.813 73.2578L191.444 73.7158C198.176 78.6526 203.285 84.1368 206.71 90.1855L225.152 122.46H202.729L174.019 72.96H139.093V122.46H119.593V3.95996ZM200.938 38.46C200.938 34.3754 199.542 30.9491 196.723 28.0977L196.445 27.8232C193.535 25.0104 189.982 23.5523 185.695 23.4639L185.277 23.46H139.093V53.46H185.277V54.96H137.593V21.96H185.277C190.117 21.96 194.187 23.5552 197.487 26.7451C200.787 29.9351 202.438 33.84 202.438 38.46C202.438 43.19 200.787 47.1498 197.487 50.3398C194.187 53.4197 190.117 54.96 185.277 54.96V53.46C189.767 53.46 193.463 52.0441 196.464 49.2432C199.449 46.3486 200.938 42.7882 200.938 38.46Z" fill="black"/>
<path d="M20.4746 63.21C20.4746 51.1684 24.3975 41.0364 32.2432 32.8145L33.0146 32.0254C41.3746 23.6654 51.7702 19.4854 64.2002 19.4854L65.1553 19.4932C74.9854 19.6697 83.577 22.5819 90.9297 28.2295C98.5197 33.9495 103.635 41.485 106.275 50.835V19.3203C95.0141 8.60044 81.2476 3.15673 64.9766 2.98926L64.2002 2.98535C47.0402 2.98535 32.6848 8.75962 21.1348 20.3096C9.69477 31.7496 3.97461 46.05 3.97461 63.21L3.97949 64.0127C4.15554 80.8181 9.87361 94.906 21.1348 106.275C32.5042 117.537 46.592 123.255 63.3975 123.431L64.2002 123.435C80.8101 123.435 94.8354 117.99 106.275 107.1V63.375H47.7002V79.875H104.79C101.6 88.0149 96.3751 94.5598 89.1152 99.5098L88.4316 99.9668C81.3352 104.612 73.258 106.935 64.2002 106.935V105.435C73.2689 105.435 81.275 103.039 88.2695 98.2705C94.6617 93.9122 99.4082 88.2878 102.53 81.375H46.2002V61.875H107.775V107.743L107.31 108.187C95.5752 119.357 81.1732 124.935 64.2002 124.935C46.9432 124.935 32.3883 119.258 20.6367 107.887L20.0791 107.341L20.0742 107.336L20.0693 107.33C8.33457 95.4824 2.47461 80.7408 2.47461 63.21C2.47461 45.6789 8.33453 30.9887 20.0742 19.249C31.9209 7.40233 46.6648 1.48535 64.2002 1.48535C80.9079 1.48539 95.1239 6.89039 106.757 17.7139L107.31 18.2334L107.775 18.6768V50.835L104.831 51.2422C102.358 42.4829 97.6551 35.4009 90.707 29.9502L90.0273 29.4277L90.0166 29.4199C82.7073 23.8056 74.124 20.9854 64.2002 20.9854C52.1453 20.9854 42.1382 25.0229 34.0752 33.0859C26.0124 41.1489 21.9746 51.1553 21.9746 63.21L21.9873 64.334C22.2317 75.8881 26.2644 85.523 34.0752 93.334C42.1382 101.397 52.1453 105.435 64.2002 105.435V106.935L63.041 106.923C51.1225 106.67 41.1135 102.493 33.0146 94.3945C24.9161 86.2958 20.7404 76.2874 20.4873 64.3691L20.4746 63.21Z" fill="black"/>
</svg>
