<?xml version="1.0" encoding="UTF-8"?>
<svg id="Layer_1" data-name="Layer 1" xmlns="http://www.w3.org/2000/svg" viewBox="0 0 645.67 644.01">
  <defs>
    <style>
      .cls-1 {
        fill: none;
        stroke: #231f20;
        stroke-miterlimit: 10;
        stroke-width: 2px;
      }
    </style>
  </defs>
  <path class="cls-1" d="M644.21,320.4c2.46,2.01-5.7,2.91-6.51,2.98-72.96,6.8-201.64,5.72-255.19,61.38-52.59,54.66-50.93,179.64-57.88,251.69-.11,1.16-.95,6.31-1.5,6.51-2.05.5-1.98-3.46-2.2-4.78-1.68-10.36-.59-19.59-1.3-29.67-1.73-24.7-5.04-49.46-7.97-73.92-6.7-55.97-13.51-120.42-59.4-159.3-51.84-43.92-177.96-46.95-244.68-51.92-1.13-.08-6.33-.97-6.51-1.5-.48-2.15,1.69-1.51,3.15-1.8,10.08-1.97,20.05-.94,30.3-1.7,25.2-1.85,50.09-4.98,74.92-7.96,90.38-10.85,160.61-21.64,188.39-120.2,15.59-55.3,18.45-119.77,21.91-176.81.21-3.49.95-18,4.89-10.09.9,9.9.32,20.07,1.01,29.94,3.39,48.38,8.36,106.4,20.83,152.93,21.08,78.64,64.68,103.98,141.55,118.1,46.47,8.54,93.58,10.95,140.69,14.1,4.92.33,10.49,1.69,15.49,1.99Z"/>
</svg>