<?xml version="1.0" encoding="UTF-8"?>
<svg id="Layer_1" data-name="Layer 1" xmlns="http://www.w3.org/2000/svg" viewBox="0 0 1123.61 1275.59">
  <defs>
    <style>
      .cls-1 {
        fill: #e5ded2;
      }
    </style>
  </defs>
  <path class="cls-1" d="M277.48,127.89c20.37,30.49,124.88,222.87,137,229.94,21.62,12.62,71.62-4.36,93.26-16.75C652.81,257.95,627.9-6,815.34.1c96.21,3.13,208.21,42.89,308.27,39.43l-258.25,735.38c-42.25,52.32-54.44,136.96-81.62,201.01-68.11,160.51-223.4,359.83-422.93,282.44-74.77-29-214.68-218.44-290.46-121.24-26.28,33.71-11.26,59.85-12.74,96.45-47.66-77.57-67.57-264.63,3.5-332.04,74.7-70.87,126.78,19.95,168.39,74.46l11.28-.15c2.58-30.16,35.3-30.85,55.76-12.23,33.34,57.94-28.75,133.73,30.77,172.12,74.96,48.36,159.04-62.43,191.18-120.51,48.55-87.74,77.86-194.07,120.85-285.07-46.75,2.85-78.41,33.92-128.74,35.67-28.77,1-83.55-8.59-105.98-27.31L0,114.68C2.02,104.37,165.34,2.62,176.07,1.52c19.1-1.96,67.87,90.46,81.98,111.16,5.25,7.71,16.56,10.9,19.44,15.2ZM873.37,31.98c-216.27-74.78-213.84,193.29-253.4,335.42-17.81,63.98-74.37,160.73-50.06,221.57,6.11,15.31,63.44,105.89,73.39,105.97,85.63-187.33,134.22-389.68,205.84-582.12,4.22-11.34,14.34-11.05,17.99-21.59,6.44-18.62,7.93-39.68,6.24-59.24Z"/>
</svg>